<?xml version="1.0" encoding="UTF-8" standalone="no"?>
<!-- Created with Inkscape (http://www.inkscape.org/) -->

<svg
   xmlns:dc="http://purl.org/dc/elements/1.1/"
   xmlns:cc="http://creativecommons.org/ns#"
   xmlns:rdf="http://www.w3.org/1999/02/22-rdf-syntax-ns#"
   xmlns:svg="http://www.w3.org/2000/svg"
   xmlns="http://www.w3.org/2000/svg"
   xmlns:xlink="http://www.w3.org/1999/xlink"
   xmlns:sodipodi="http://sodipodi.sourceforge.net/DTD/sodipodi-0.dtd"
   xmlns:inkscape="http://www.inkscape.org/namespaces/inkscape"
   width="768"
   height="382"
   id="svg2"
   version="1.1"
   inkscape:version="0.48.4 r9939"
   sodipodi:docname="origin.svg">
  <defs
     id="defs4">
    <linearGradient
       y2="2"
       x2="2"
       y1="0"
       x1="0"
       spreadMethod="reflect"
       gradientUnits="userSpaceOnUse"
       id="strips04"
       xlink:href="#linearGradient03" />
    <linearGradient
       id="linearGradient04">
      <stop
         id="stop3027"
         style="stop-color:#fff880;stop-opacity:1;"
         offset="0" />
      <stop
         id="stop3029"
         style="stop-color:#fff880;stop-opacity:1;"
         offset="0.5" />
      <stop
         id="stop3031"
         style="stop-color:#ffffff;stop-opacity:1;"
         offset="0.5" />
      <stop
         id="stop3033"
         style="stop-color:#ffffff;stop-opacity:1;"
         offset="1" />
    </linearGradient>
    <linearGradient
       id="linearGradient03">
      <stop
         id="stop3018"
         style="stop-color:#b3b744;stop-opacity:1;"
         offset="0" />
      <stop
         id="stop3020"
         style="stop-color:#b3b744;stop-opacity:1;"
         offset="0.5" />
      <stop
         id="stop3022"
         style="stop-color:#ffffff;stop-opacity:1;"
         offset="0.5" />
      <stop
         id="stop3024"
         style="stop-color:#ffffff;stop-opacity:1;"
         offset="1" />
    </linearGradient>
    <linearGradient
       id="linearGradient02">
      <stop
         id="stop3009"
         style="stop-color:#80ce51;stop-opacity:1;"
         offset="0" />
      <stop
         id="stop3011"
         style="stop-color:#80ce51;stop-opacity:1;"
         offset="0.5" />
      <stop
         id="stop3013"
         style="stop-color:#ffffff;stop-opacity:1;"
         offset="0.5" />
      <stop
         id="stop3015"
         style="stop-color:#ffffff;stop-opacity:1;"
         offset="1" />
    </linearGradient>
    <linearGradient
       id="linearGradient01">
      <stop
         id="stop3000"
         style="stop-color:#cce53f;stop-opacity:1;"
         offset="0" />
      <stop
         id="stop3002"
         style="stop-color:#cce53f;stop-opacity:1;"
         offset="0.5" />
      <stop
         id="stop3004"
         style="stop-color:#ffffff;stop-opacity:1;"
         offset="0.5" />
      <stop
         id="stop3006"
         style="stop-color:#ffffff;stop-opacity:1;"
         offset="1" />
    </linearGradient>
    <linearGradient
       inkscape:collect="always"
       xlink:href="#linearGradient01"
       id="linearGradient15177"
       gradientUnits="userSpaceOnUse"
       spreadMethod="reflect"
       x1="0"
       y1="0"
       x2="2"
       y2="2" />
    <linearGradient
       inkscape:collect="always"
       xlink:href="#linearGradient01"
       id="linearGradient15179"
       gradientUnits="userSpaceOnUse"
       spreadMethod="reflect"
       x1="0"
       y1="0"
       x2="2"
       y2="2" />
    <linearGradient
       inkscape:collect="always"
       xlink:href="#linearGradient01"
       id="linearGradient15181"
       gradientUnits="userSpaceOnUse"
       spreadMethod="reflect"
       x1="0"
       y1="0"
       x2="2"
       y2="2" />
    <linearGradient
       inkscape:collect="always"
       xlink:href="#linearGradient02"
       id="linearGradient15189"
       gradientUnits="userSpaceOnUse"
       spreadMethod="reflect"
       x1="0"
       y1="0"
       x2="2"
       y2="2" />
    <linearGradient
       inkscape:collect="always"
       xlink:href="#linearGradient02"
       id="linearGradient15191"
       gradientUnits="userSpaceOnUse"
       spreadMethod="reflect"
       x1="0"
       y1="0"
       x2="2"
       y2="2" />
    <linearGradient
       inkscape:collect="always"
       xlink:href="#linearGradient02"
       id="linearGradient15193"
       gradientUnits="userSpaceOnUse"
       spreadMethod="reflect"
       x1="0"
       y1="0"
       x2="2"
       y2="2" />
    <linearGradient
       inkscape:collect="always"
       xlink:href="#linearGradient01"
       id="linearGradient15199"
       gradientUnits="userSpaceOnUse"
       spreadMethod="reflect"
       x1="0"
       y1="0"
       x2="2"
       y2="2" />
    <linearGradient
       inkscape:collect="always"
       xlink:href="#linearGradient01"
       id="linearGradient15201"
       gradientUnits="userSpaceOnUse"
       spreadMethod="reflect"
       x1="0"
       y1="0"
       x2="2"
       y2="2" />
    <linearGradient
       inkscape:collect="always"
       xlink:href="#linearGradient01"
       id="linearGradient15203"
       gradientUnits="userSpaceOnUse"
       spreadMethod="reflect"
       x1="0"
       y1="0"
       x2="2"
       y2="2" />
    <linearGradient
       inkscape:collect="always"
       xlink:href="#linearGradient03"
       id="linearGradient15233"
       gradientUnits="userSpaceOnUse"
       spreadMethod="reflect"
       x1="0"
       y1="0"
       x2="2"
       y2="2" />
    <linearGradient
       inkscape:collect="always"
       xlink:href="#linearGradient03"
       id="linearGradient15237"
       gradientUnits="userSpaceOnUse"
       spreadMethod="reflect"
       x1="0"
       y1="0"
       x2="2"
       y2="2" />
    <linearGradient
       inkscape:collect="always"
       xlink:href="#linearGradient03"
       id="linearGradient15239"
       gradientUnits="userSpaceOnUse"
       spreadMethod="reflect"
       x1="0"
       y1="0"
       x2="2"
       y2="2" />
    <linearGradient
       inkscape:collect="always"
       xlink:href="#linearGradient03"
       id="linearGradient15241"
       gradientUnits="userSpaceOnUse"
       spreadMethod="reflect"
       x1="0"
       y1="0"
       x2="2"
       y2="2" />
    <linearGradient
       inkscape:collect="always"
       xlink:href="#linearGradient04"
       id="linearGradient15255"
       gradientUnits="userSpaceOnUse"
       spreadMethod="reflect"
       x1="0"
       y1="0"
       x2="2"
       y2="2" />
    <linearGradient
       inkscape:collect="always"
       xlink:href="#linearGradient04"
       id="linearGradient15275"
       gradientUnits="userSpaceOnUse"
       spreadMethod="reflect"
       x1="0"
       y1="0"
       x2="2"
       y2="2" />
    <linearGradient
       inkscape:collect="always"
       xlink:href="#linearGradient04"
       id="linearGradient15277"
       gradientUnits="userSpaceOnUse"
       spreadMethod="reflect"
       x1="0"
       y1="0"
       x2="2"
       y2="2" />
    <linearGradient
       inkscape:collect="always"
       xlink:href="#linearGradient04"
       id="linearGradient15279"
       gradientUnits="userSpaceOnUse"
       spreadMethod="reflect"
       x1="0"
       y1="0"
       x2="2"
       y2="2" />
    <linearGradient
       inkscape:collect="always"
       xlink:href="#linearGradient03"
       id="linearGradient15293"
       gradientUnits="userSpaceOnUse"
       spreadMethod="reflect"
       x1="0"
       y1="0"
       x2="2"
       y2="2" />
    <linearGradient
       inkscape:collect="always"
       xlink:href="#linearGradient03"
       id="linearGradient15295"
       gradientUnits="userSpaceOnUse"
       spreadMethod="reflect"
       x1="0"
       y1="0"
       x2="2"
       y2="2" />
    <linearGradient
       inkscape:collect="always"
       xlink:href="#linearGradient03"
       id="linearGradient15301"
       gradientUnits="userSpaceOnUse"
       spreadMethod="reflect"
       x1="0"
       y1="0"
       x2="2"
       y2="2" />
    <linearGradient
       inkscape:collect="always"
       xlink:href="#linearGradient03"
       id="linearGradient15303"
       gradientUnits="userSpaceOnUse"
       spreadMethod="reflect"
       x1="0"
       y1="0"
       x2="2"
       y2="2" />
    <linearGradient
       inkscape:collect="always"
       xlink:href="#linearGradient03"
       id="linearGradient12959"
       gradientUnits="userSpaceOnUse"
       spreadMethod="reflect"
       x1="0"
       y1="0"
       x2="2"
       y2="2" />
    <linearGradient
       inkscape:collect="always"
       xlink:href="#linearGradient03"
       id="linearGradient12961"
       gradientUnits="userSpaceOnUse"
       spreadMethod="reflect"
       x1="0"
       y1="0"
       x2="2"
       y2="2" />
    <linearGradient
       inkscape:collect="always"
       xlink:href="#linearGradient03"
       id="linearGradient12978"
       gradientUnits="userSpaceOnUse"
       spreadMethod="reflect"
       x1="0"
       y1="0"
       x2="2"
       y2="2" />
    <linearGradient
       inkscape:collect="always"
       xlink:href="#linearGradient03"
       id="linearGradient12980"
       gradientUnits="userSpaceOnUse"
       spreadMethod="reflect"
       x1="0"
       y1="0"
       x2="2"
       y2="2" />
    <linearGradient
       inkscape:collect="always"
       xlink:href="#linearGradient04"
       id="linearGradient13242"
       gradientUnits="userSpaceOnUse"
       spreadMethod="reflect"
       x1="0"
       y1="0"
       x2="2"
       y2="2" />
    <linearGradient
       inkscape:collect="always"
       xlink:href="#linearGradient04"
       id="linearGradient13244"
       gradientUnits="userSpaceOnUse"
       spreadMethod="reflect"
       x1="0"
       y1="0"
       x2="2"
       y2="2" />
    <linearGradient
       inkscape:collect="always"
       xlink:href="#linearGradient04"
       id="linearGradient13246"
       gradientUnits="userSpaceOnUse"
       spreadMethod="reflect"
       x1="0"
       y1="0"
       x2="2"
       y2="2" />
    <linearGradient
       inkscape:collect="always"
       xlink:href="#linearGradient03"
       id="linearGradient13279"
       gradientUnits="userSpaceOnUse"
       spreadMethod="reflect"
       x1="0"
       y1="0"
       x2="2"
       y2="2" />
    <linearGradient
       inkscape:collect="always"
       xlink:href="#linearGradient03"
       id="linearGradient13281"
       gradientUnits="userSpaceOnUse"
       spreadMethod="reflect"
       x1="0"
       y1="0"
       x2="2"
       y2="2" />
    <linearGradient
       inkscape:collect="always"
       xlink:href="#linearGradient03"
       id="linearGradient13283"
       gradientUnits="userSpaceOnUse"
       spreadMethod="reflect"
       x1="0"
       y1="0"
       x2="2"
       y2="2" />
    <linearGradient
       inkscape:collect="always"
       xlink:href="#linearGradient01"
       id="linearGradient13396"
       gradientUnits="userSpaceOnUse"
       spreadMethod="reflect"
       x1="0"
       y1="0"
       x2="2"
       y2="2" />
    <linearGradient
       inkscape:collect="always"
       xlink:href="#linearGradient01"
       id="linearGradient13398"
       gradientUnits="userSpaceOnUse"
       spreadMethod="reflect"
       x1="0"
       y1="0"
       x2="2"
       y2="2" />
    <linearGradient
       inkscape:collect="always"
       xlink:href="#linearGradient02"
       id="linearGradient13758"
       gradientUnits="userSpaceOnUse"
       spreadMethod="reflect"
       x1="0"
       y1="0"
       x2="2"
       y2="2" />
    <linearGradient
       inkscape:collect="always"
       xlink:href="#linearGradient02"
       id="linearGradient13760"
       gradientUnits="userSpaceOnUse"
       spreadMethod="reflect"
       x1="0"
       y1="0"
       x2="2"
       y2="2" />
    <linearGradient
       inkscape:collect="always"
       xlink:href="#linearGradient01"
       id="linearGradient13921"
       gradientUnits="userSpaceOnUse"
       spreadMethod="reflect"
       x1="0"
       y1="0"
       x2="2"
       y2="2" />
    <linearGradient
       inkscape:collect="always"
       xlink:href="#linearGradient01"
       id="linearGradient13923"
       gradientUnits="userSpaceOnUse"
       spreadMethod="reflect"
       x1="0"
       y1="0"
       x2="2"
       y2="2" />
    <linearGradient
       inkscape:collect="always"
       xlink:href="#linearGradient04"
       id="linearGradient14945"
       gradientUnits="userSpaceOnUse"
       spreadMethod="reflect"
       x1="0"
       y1="0"
       x2="2"
       y2="2" />
    <linearGradient
       inkscape:collect="always"
       xlink:href="#linearGradient03"
       id="linearGradient14982"
       gradientUnits="userSpaceOnUse"
       spreadMethod="reflect"
       x1="0"
       y1="0"
       x2="2"
       y2="2" />
    <linearGradient
       inkscape:collect="always"
       xlink:href="#linearGradient02"
       id="linearGradient15026"
       gradientUnits="userSpaceOnUse"
       spreadMethod="reflect"
       x1="0"
       y1="0"
       x2="2"
       y2="2" />
    <linearGradient
       inkscape:collect="always"
       xlink:href="#linearGradient01"
       id="linearGradient15074"
       gradientUnits="userSpaceOnUse"
       spreadMethod="reflect"
       x1="0"
       y1="0"
       x2="2"
       y2="2" />
    <linearGradient
       inkscape:collect="always"
       xlink:href="#linearGradient03"
       id="linearGradient15562"
       gradientUnits="userSpaceOnUse"
       spreadMethod="reflect"
       x1="0"
       y1="0"
       x2="2"
       y2="2" />
    <linearGradient
       inkscape:collect="always"
       xlink:href="#linearGradient03"
       id="linearGradient15570"
       gradientUnits="userSpaceOnUse"
       spreadMethod="reflect"
       x1="0"
       y1="0"
       x2="2"
       y2="2" />
    <linearGradient
       inkscape:collect="always"
       xlink:href="#linearGradient04"
       id="linearGradient16532"
       gradientUnits="userSpaceOnUse"
       spreadMethod="reflect"
       x1="0"
       y1="0"
       x2="2"
       y2="2" />
    <radialGradient
       inkscape:collect="always"
       xlink:href="#linearGradient16714-2"
       id="radialGradient16724-1"
       cx="384.6875"
       cy="346.09247"
       fx="384.6875"
       fy="346.09247"
       r="383.6875"
       gradientTransform="matrix(1.8596669,0,0,0.55172564,-330.70311,77.776114)"
       gradientUnits="userSpaceOnUse" />
    <linearGradient
       inkscape:collect="always"
       id="linearGradient16714-2">
      <stop
         style="stop-color:#b3c464;stop-opacity:1;"
         offset="0"
         id="stop16716-7" />
      <stop
         id="stop16726-7"
         offset="0.80000001"
         style="stop-color:#b6cb55;stop-opacity:1" />
      <stop
         style="stop-color:#b5cb54;stop-opacity:1"
         offset="1"
         id="stop16718-9" />
    </linearGradient>
    <radialGradient
       r="383.6875"
       fy="346.09247"
       fx="384.6875"
       cy="346.09247"
       cx="384.6875"
       gradientTransform="matrix(1.8596669,0,0,0.55172564,-330.70311,77.776114)"
       gradientUnits="userSpaceOnUse"
       id="radialGradient16745"
       xlink:href="#linearGradient16714-2"
       inkscape:collect="always" />
    <radialGradient
       inkscape:collect="always"
       xlink:href="#linearGradient16714-2"
       id="radialGradient17222"
       gradientUnits="userSpaceOnUse"
       gradientTransform="matrix(1.8596669,0,0,0.55172564,-330.70311,77.776114)"
       cx="384.6875"
       cy="346.09247"
       fx="384.6875"
       fy="346.09247"
       r="383.6875" />
  </defs>
  <sodipodi:namedview
     id="base"
     pagecolor="#ffffff"
     bordercolor="#666666"
     borderopacity="1.0"
     inkscape:pageopacity="0.0"
     inkscape:pageshadow="2"
     inkscape:zoom="1.3033854"
     inkscape:cx="384"
     inkscape:cy="191"
     inkscape:document-units="px"
     inkscape:current-layer="layer3"
     showgrid="false"
     fit-margin-top="0"
     fit-margin-left="0"
     fit-margin-right="0"
     fit-margin-bottom="0"
     inkscape:window-width="1440"
     inkscape:window-height="845"
     inkscape:window-x="0"
     inkscape:window-y="30"
     inkscape:window-maximized="1"
     showguides="true"
     inkscape:guide-bbox="true" />
  <metadata
     id="metadata7">
    <rdf:RDF>
      <cc:Work
         rdf:about="">
        <dc:format>image/svg+xml</dc:format>
        <dc:type
           rdf:resource="http://purl.org/dc/dcmitype/StillImage" />
        <dc:title></dc:title>
      </cc:Work>
    </rdf:RDF>
  </metadata>
  <g
     inkscape:groupmode="layer"
     id="layer4"
     inkscape:label="sea" />
  <g
     inkscape:label="Layer 1"
     inkscape:groupmode="layer"
     id="layer1"
     transform="translate(-225.71428,-560.57648)"
     style="display:inline" />
  <g
     inkscape:groupmode="layer"
     id="layer3"
     inkscape:label="outline"
     style="display:inline">
    <path
       style="fill:#0059e2;display:inline;opacity:0.10000000000000001;fill-opacity:1"
       d="m 342.49802,360.75183 -0.25802,-21.24816 -7.92,-0.27127 -7.92,-0.27127 0,-9.76907 0,-9.76908 8.16,0 8.16,0 0,-28.01956 0,-28.01956 -8.64,0 -8.64,0 0,-2.80195 0,-2.80196 8.64,0 8.64,0 -0.0416,-10.97433 -0.0416,-10.97432 -5.81026,-3.67672 c -3.19566,-2.02219 -6.16384,-4.54395 -6.59596,-5.60391 -0.43212,-1.05996 -2.36406,-3.48327 -4.29319,-5.38514 -3.76793,-3.71468 -3.99914,-4.91363 -2.823,-14.63903 0.43246,-3.57602 0.25821,-5.23104 -0.60544,-5.75034 -1.24329,-0.74758 -1.28311,-0.64056 3.63807,-9.77616 0.83015,-1.54108 1.98268,-3.11074 2.56116,-3.48815 0.5785,-0.3774 -1.43219,-0.69262 -4.46819,-0.70048 l -5.52005,-0.0143 0,-6.80303 0,-6.80304 10.32,-10.88886 c 9.07666,-9.57698 10.66698,-10.86722 13.2,-10.70919 1.84474,0.11508 2.78251,0.63206 2.60881,1.43818 -2.08453,9.67375 -1.01348,12.34725 4.62641,11.54816 4.68004,-0.6631 7.52082,-2.73592 8.41974,-6.14359 0.45985,-1.74324 1.98631,-3.68265 3.77409,-4.79511 1.65105,-1.02739 3.13895,-2.70856 3.30643,-3.73594 0.2369,-1.45315 1.05069,-1.87037 3.66452,-1.87875 1.848,-0.006 3.90305,-0.34778 4.56678,-0.75969 1.81704,-1.12763 2.27192,1.02521 1.95639,9.25889 l -0.28317,7.38933 -6.55957,0.6308 c -3.60777,0.34695 -8.08408,1.33463 -9.94735,2.19485 -3.22361,1.48825 -3.35876,1.74054 -2.78908,5.2066 0.52502,3.19437 0.36692,3.64256 -1.28495,3.64256 -1.036,0 -2.22911,0.55824 -2.65135,1.24052 -0.66528,1.07502 -3.67251,2.85916 -8.9277,5.29668 -3.39276,1.57365 -1.8784,3.65777 6.90712,9.50587 18.87127,12.56167 18.24669,11.98842 17.87143,16.40317 -0.27203,3.20013 -0.61841,3.58907 -3.89855,4.37741 -4.14948,0.99727 -4.28837,1.33265 -1.68,4.05654 2.28849,2.38984 2.42291,3.5635 0.49074,4.28485 -1.1171,0.41706 -1.22194,1.06413 -0.48,2.96268 0.52209,1.33601 0.94926,3.47888 0.94926,4.76197 0,1.68967 0.46319,2.26733 1.68,2.09516 2.62868,-0.37192 6,1.04301 6,2.51819 0,0.78488 0.94026,1.33804 2.27439,1.33804 1.8824,0 2.37694,0.60364 2.86943,3.50244 0.32728,1.92635 0.5998,4.65825 0.60561,6.07091 0.01,2.32766 -0.32694,2.57882 -3.58943,2.67896 -3.48733,0.10705 -3.50987,0.12925 -0.72,0.7096 l 2.88,0.59909 0.24636,67.00434 0.24635,67.00434 -16.30834,0 -16.30832,0 -0.25803,-21.24817 z m 2.14198,-213.06396 -2.4,-0.67217 0.34354,-10.46064 0.34354,-10.46063 -2.86712,0.55788 c -3.05229,0.59392 -4.69445,-0.68376 -3.42624,-2.66576 0.41088,-0.64211 0.62145,-2.11314 0.46796,-3.26895 -0.1535,-1.1558 0.18383,-2.10146 0.74961,-2.10146 0.5658,0 1.89271,-0.84059 2.94871,-1.86797 1.70667,-1.66042 1.92,-3.11329 1.92,-13.0758 l 0,-11.207822 -18.72,0 -18.72,0 0,-7.00489 0,-7.00489 18.72,0 18.72,0 0,-39.227384 0,-39.227384 16.32,0 16.32,0 -0.0675,45.998778 c -0.0371,25.299327 -0.43873,46.839364 -0.89251,47.866748 -0.45378,1.027384 -0.85542,1.522732 -0.89252,1.100767 -0.0692,-0.786705 -2.94748,1.658029 -2.94748,2.503501 0,0.257808 0.972,0.650885 2.16,0.87351 l 2.16,0.404761 -2.16,0.12719 c -1.188,0.06996 -2.16,0.592445 -2.16,1.161105 0,0.5749 0.69957,0.77273 1.57578,0.44561 1.26095,-0.47076 1.35354,-0.32777 0.46344,0.71568 -0.61179,0.71719 -0.84268,1.98769 -0.51307,2.82333 0.37112,0.94092 0.10331,1.5246 -0.70344,1.53313 -0.7165,0.007 -0.22271,0.54315 1.09729,1.19018 2.04665,1.0032 2.44369,1.92203 2.69672,6.24071 0.41164,7.02589 -0.29181,9.31557 -2.67567,8.70907 -1.40653,-0.35785 -2.35229,0.27819 -3.604,2.42379 -0.93338,1.59992 -2.54464,3.17462 -3.58059,3.49933 -1.03594,0.32471 -2.6873,1.5845 -3.66968,2.79955 -1.02248,1.26466 -2.80667,2.20918 -4.17312,2.20918 -1.34686,0 -2.12844,0.40698 -1.79366,0.93398 0.35309,0.55584 -0.79003,0.93399 -2.82334,0.93399 -3.81339,0 -4.59588,1.37752 -1.24698,2.19526 3.17071,0.77424 5.60572,5.25545 4.68578,8.62341 -0.67041,2.45443 -1.1654,2.74012 -4.99977,2.8858 -2.34062,0.0889 -5.33569,-0.14079 -6.65569,-0.51049 z M 313.92,45.823105 c -3.11348,-0.486311 -3.38274,-0.796189 -3.66997,-4.223507 -0.34536,-4.120883 1.39528,-6.108155 5.35011,-6.108155 1.25024,0 2.07702,-0.315221 1.83728,-0.700489 -0.23974,-0.385269 0.249,-1.317162 1.08608,-2.070873 1.35892,-1.223567 1.43872,-1.173536 0.74489,0.466993 -0.42739,1.010557 -0.79763,2.362743 -0.82274,3.004858 -0.0251,0.642114 -0.72965,1.209376 -1.56565,1.260581 -0.836,0.0512 -0.44,0.394391 0.88,0.762636 1.96428,0.547983 2.34544,1.16695 2.09948,3.409346 -0.40851,3.724312 -1.95898,4.820345 -5.93948,4.19861 z m 4.1199,-2.626283 c -0.80306,-2.117582 -2.18187,-2.983556 -3.79285,-2.382122 -1.93135,0.721049 -1.54846,2.148625 0.57629,2.148625 1.02484,0 2.13034,0.420294 2.45666,0.933986 0.95825,1.508469 1.43199,1.071764 0.7599,-0.700489 z m 2.1201,-6.771394 c 0.32632,-0.513692 0.78382,-0.933985 1.01666,-0.933985 0.23284,0 0.42334,0.420293 0.42334,0.933985 0,0.513692 -0.4575,0.933985 -1.01666,0.933985 -0.55916,0 -0.74966,-0.420293 -0.42334,-0.933985 z"
       id="path17169"
       inkscape:connector-curvature="0" />
    <path
       style="fill:url(#radialGradient17222);fill-opacity:1;stroke:none;display:inline"
       d="M 313.03125 35.875 C 310.90943 36.633691 309.99211 38.51656 310.25 41.59375 C 310.53723 45.021068 310.79277 45.326189 313.90625 45.8125 C 315.25132 46.022594 316.31643 46.029831 317.15625 45.8125 L 316.46875 45.34375 L 312.375 45.25 L 312.1875 45.15625 L 312.375 45 L 312.8125 45.21875 L 315.59375 45.15625 L 316.90625 44.875 L 317.09375 44.59375 L 317.0625 44.59375 L 316.1875 44.03125 L 315.4375 44.15625 L 314.375 43.75 L 314.0625 43.8125 L 315.40625 44.46875 L 315 44.53125 L 314 43.90625 L 312.84375 44.0625 L 313.03125 43.5 L 312.84375 43.28125 L 311.8125 43.21875 L 311.125 43.1875 L 311.4375 43 L 311.8125 43.21875 L 312.65625 43.1875 L 312.78125 43.03125 L 312.15625 43.09375 L 312.71875 42.8125 L 312 42.75 L 312.125 42.6875 L 312.40625 42.5625 L 312.4375 42.5625 L 312.4375 42.53125 L 311.71875 42.34375 L 311.375 42.875 L 310.5625 42.15625 L 311.40625 41.90625 L 311.1875 41.5625 L 311.5625 41.40625 L 312.90625 42.34375 L 313.0625 42.25 C 312.92977 41.960378 313.03429 41.652477 313.375 41.34375 L 313.09375 41.3125 L 313.40625 41.3125 C 313.61064 41.136382 313.87788 40.951426 314.25 40.8125 C 315.01522 40.526819 315.72012 40.584141 316.34375 40.9375 L 316.65625 40.96875 L 317.75 41.375 L 318.71875 41.40625 L 319.46875 41.625 L 319.6875 41.90625 L 319.65625 41.5625 L 319.875 41.59375 C 319.97246 40.688464 319.9258 40.069087 319.75 39.59375 L 318.625 39.625 L 318.4375 39.78125 L 317.5625 39.65625 L 315.375 38.3125 L 315.84375 38.34375 L 315.625 38.15625 L 314.75 37.75 L 316.1875 37.59375 L 316.5 37.71875 C 316.3405 37.580522 316.457 37.4631 316.875 37.4375 C 317.084 37.424699 317.28474 37.382915 317.46875 37.3125 L 315.65625 36.9375 L 314.625 36.34375 L 313.375 37.5 L 313.375 37.53125 L 313.59375 37.96875 L 312.71875 38.46875 L 313.34375 37.84375 L 312.03125 37.75 L 312.96875 36.59375 L 312.53125 36.6875 L 313.3125 35.96875 L 313.0625 35.875 L 313.03125 35.875 z M 321.46875 36.84375 L 320.9375 36.90625 L 320.59375 37.375 C 320.97184 37.375 321.29363 37.158265 321.46875 36.875 L 321.46875 36.84375 z M 318.75 41.875 L 318.53125 41.90625 L 318.59375 42.46875 L 319.09375 42.5625 L 318.5 42.5625 L 318.3125 42.90625 L 319 44.5 C 319.12114 44.309415 319.24827 44.105714 319.34375 43.875 L 319.3125 42.375 L 318.75 41.875 z M 324.875 81.25 L 323.90625 81.28125 L 323.75 81.4375 L 323.96875 82.5625 L 322.78125 82.40625 L 321.375 83.0625 L 320.8125 82.5625 L 320.03125 82.46875 L 320.5 84.15625 L 319.21875 82.53125 L 318.34375 82.53125 L 317.5625 82.96875 L 317.5625 84 L 316.09375 82.65625 L 315.5 82.78125 L 315.8125 83.96875 L 315.375 84.8125 L 315 84.5 L 314.96875 84.125 L 314.40625 84.4375 L 314.375 85.03125 L 314.0625 84.9375 L 314.0625 85.9375 L 313.25 84.96875 L 313.625 84.53125 L 313.25 84.5625 L 313.375 84.34375 L 312.875 84.25 L 312.625 83.875 L 313 84.125 L 313.5 84 L 313.625 83.375 L 313 83.25 L 313.5625 83.09375 L 312.78125 82.90625 L 312.1875 82.15625 L 311.1875 81.46875 L 309.71875 81.5625 L 309.8125 82 L 310.78125 81.8125 L 310.59375 82.0625 L 311.3125 82.125 L 310.5 82.625 L 311.28125 82.75 L 311.1875 83.59375 L 310.96875 83.25 L 310.75 83.65625 L 310.90625 83.15625 L 310.65625 82.90625 L 310.375 83.375 L 309.9375 82.71875 L 308.8125 82.46875 L 309.09375 82.71875 L 308.59375 82.6875 L 309.15625 83.09375 L 308.40625 82.84375 L 308.25 82.96875 L 309.4375 83.59375 L 308.28125 83.34375 L 308.125 83.46875 L 309.1875 83.90625 L 309.53125 83.8125 L 308.84375 84.0625 L 308.75 84.375 L 308.53125 84.03125 L 307.65625 83.75 L 307.71875 84.09375 L 308.25 84.40625 L 307.6875 84.28125 L 308.1875 84.71875 L 307.21875 84.3125 L 306.6875 84.78125 L 308.0625 85.09375 L 310.125 84.46875 L 312.75 84.9375 L 310.96875 85.8125 L 312.21875 86 L 312.625 85.78125 L 312.5 86.28125 L 311 86.28125 L 310.71875 86.46875 L 310.5625 86.21875 L 309.6875 86.6875 L 309.5625 86.40625 L 309.34375 86.71875 L 307.75 86.8125 L 308.1875 87.375 L 311.71875 87.34375 L 311.21875 87.65625 L 311.75 88.28125 L 312.5625 87.90625 L 312.15625 88.125 L 311.90625 88.75 L 312.78125 88.625 L 312.28125 89 L 312.65625 89.21875 L 310.9375 89.78125 L 310.65625 89.53125 L 310.59375 90.375 L 314.875 90.21875 L 314.75 90.5625 L 315.375 90.46875 L 315.21875 90.8125 L 315.875 91.25 L 319.09375 91.78125 L 320.1875 91.5625 L 319.96875 91.3125 L 320.375 91.5 L 320.90625 90.6875 L 323.375 90.34375 L 326.21875 88.6875 L 327.0625 88.9375 L 328.0625 88.28125 L 327.90625 87.875 L 328.34375 87.375 L 328.1875 87.21875 L 328.625 87.5 L 329 87.4375 L 329.25 86.84375 L 329.0625 86.71875 L 329.53125 86.6875 L 329.34375 86.4375 L 328.65625 86.375 L 330.21875 86.21875 L 329.625 85.8125 L 329.125 85.8125 L 330.09375 85.5625 L 329.1875 85.5625 L 329.71875 85.40625 L 330 84.75 L 328.65625 84.25 L 328.03125 84.65625 L 328.5625 84.1875 L 328.46875 83.9375 L 327.375 84 L 327.875 83.1875 L 326.6875 82.75 L 327.03125 82.5 L 327.03125 82.125 L 327.96875 81.75 L 327.0625 81.875 L 326.3125 82.25 L 326.25 82.5625 L 325.40625 82.09375 L 325.5625 81.75 L 325.0625 81.59375 L 325.125 81.375 L 324.875 81.25 z M 374.53125 93.03125 L 373.875 93.3125 L 374 93.5625 L 374.4375 93.6875 C 374.4668 93.550745 374.50254 93.333005 374.53125 93.03125 z M 374.4375 93.6875 L 373.96875 93.9375 L 374.375 93.96875 C 374.38981 93.936097 374.39131 93.90882 374.40625 93.875 C 374.41829 93.847749 374.42554 93.743301 374.4375 93.6875 z M 345.21875 94.3125 C 344.88545 94.3125 344.58473 94.435868 344.375 94.65625 C 344.2782 94.63051 344.16771 94.625 344.0625 94.625 C 343.42846 94.625 342.9375 95.102763 342.9375 95.71875 C 342.9375 96.334732 343.42846 96.84375 344.0625 96.84375 C 343.66307 97.018318 343.375 97.421897 343.375 97.875 C 343.375 98.490982 343.89721 99 344.53125 99 C 345.16529 99 345.6875 98.490982 345.6875 97.875 C 345.6875 97.358175 345.30348 96.939068 344.8125 96.8125 L 344.8125 96.75 L 344.625 96.6875 C 344.73847 96.62614 344.82059 96.562367 344.90625 96.46875 C 345.00931 96.49824 345.10586 96.53125 345.21875 96.53125 C 345.85279 96.53125 346.375 96.022237 346.375 95.40625 C 346.375 94.790268 345.85279 94.3125 345.21875 94.3125 z M 374.1875 94.3125 L 372.4375 94.5 L 373.15625 94.625 L 372.71875 94.71875 L 372.875 94.875 L 373.375 94.71875 L 373.78125 94.9375 L 373.8125 94.9375 C 373.9183 94.802961 374.04988 94.582974 374.1875 94.3125 z M 373.78125 94.9375 L 373.46875 94.90625 C 373.47698 94.92538 373.49771 94.942719 373.5 94.96875 C 373.51767 95.169754 373.63191 95.142398 373.78125 94.96875 L 373.78125 94.9375 z M 372.5 95.09375 L 371.78125 95.5625 L 371.90625 95.6875 C 372.13417 95.48788 372.34851 95.302368 372.5625 95.15625 L 372.5 95.09375 z M 370.15625 95.5625 L 370.65625 96.15625 L 370.0625 96.46875 L 371.09375 96.53125 C 371.22789 96.37255 371.37006 96.189861 371.53125 96.03125 L 371.4375 95.65625 L 371.1875 95.84375 L 370.71875 95.6875 L 370.75 96.21875 L 370.15625 95.5625 z M 370.6875 96.53125 L 369.6875 97.28125 L 370.53125 97.4375 L 369.8125 97.53125 L 370.21875 97.5625 L 370.5 97.71875 L 370.34375 97.84375 L 371.09375 97.875 C 370.76568 97.731256 370.5625 97.585422 370.5625 97.46875 C 370.5625 97.250802 370.74614 96.941495 371.03125 96.59375 L 370.6875 96.53125 z M 344.4375 96.75 L 344.46875 96.78125 C 344.33625 96.78915 344.21033 96.79583 344.09375 96.84375 C 344.21101 96.84065 344.33152 96.78462 344.4375 96.75 z M 371.1875 97.90625 L 369.90625 98.125 L 369.9375 98.34375 L 371.125 98.28125 L 369.78125 98.65625 L 370.5 99.15625 L 370 99.1875 L 370.25 99.53125 L 369.9375 99.8125 L 369.75 99.5625 L 369.875 99.9375 L 370.59375 99.8125 C 370.71973 99.512381 371.13148 99.270536 371.65625 99.09375 L 370.875 99.125 L 372.0625 98.9375 L 372.15625 98.96875 C 372.33919 98.93368 372.52022 98.886691 372.71875 98.875 L 372.96875 98.875 L 373.3125 98.5 L 373.25 98.78125 L 373.78125 98.8125 L 374.71875 98.75 L 374.6875 98.71875 L 372.71875 98.34375 C 372.12475 98.232437 371.579 98.064573 371.1875 97.90625 z M 357.21875 99.125 C 356.71925 99.125 356.28287 99.442294 356.125 99.875 C 356.0282 99.84926 355.91771 99.84375 355.8125 99.84375 C 355.17846 99.84375 354.6875 100.32152 354.6875 100.9375 C 354.6875 101.29496 354.8558 101.60839 355.125 101.8125 C 355.0811 101.93074 355.03125 102.05454 355.03125 102.1875 C 355.03125 102.80348 355.55346 103.3125 356.1875 103.3125 C 356.82154 103.3125 357.34375 102.80348 357.34375 102.1875 C 357.34375 101.83206 357.17284 101.51674 356.90625 101.3125 C 356.90925 101.3035 356.90325 101.29035 356.90625 101.28125 C 357.00345 101.30725 357.11308 101.34375 357.21875 101.34375 C 357.85279 101.34375 358.34375 100.86598 358.34375 100.25 C 358.34375 99.634018 357.85279 99.125 357.21875 99.125 z M 370.59375 99.875 L 370.34375 100.09375 L 370.59375 100.34375 L 370.15625 100.625 L 370.28125 100.8125 L 370.875 100.5625 C 370.67342 100.46408 370.5625 100.26853 370.5625 100.03125 C 370.5625 99.980071 370.57855 99.925135 370.59375 99.875 z M 373.0625 100.21875 C 372.90845 100.20755 372.59786 100.29221 372.125 100.46875 C 371.79685 100.59126 371.53238 100.64198 371.28125 100.625 L 371.0625 101.15625 L 370.375 100.90625 L 370.0625 101.375 L 370.59375 102.0625 L 371.09375 101.5 L 370.96875 102.03125 L 371.4375 101.90625 L 371.25 102.34375 L 371.40625 102.59375 L 371.625 102.15625 L 372.3125 101.625 C 372.39527 101.4709 372.48669 101.31301 372.59375 101.1875 C 373.15006 100.53534 373.31924 100.23742 373.0625 100.21875 z M 372.21875 101.8125 L 372.0625 101.9375 L 372.15625 102 C 372.17872 101.9389 372.19283 101.87141 372.21875 101.8125 z M 372.03125 102.4375 L 371.15625 103.09375 L 371.9375 103.28125 C 371.9266 103.01036 371.97034 102.71341 372.03125 102.4375 z M 371.9375 103.34375 L 371.4375 103.8125 L 371 103.65625 L 370.71875 104.0625 L 370.46875 104.0625 L 370.75 103.9375 L 370.8125 103.40625 L 370.375 103.75 L 370.21875 104.28125 L 370.90625 104.75 L 371 104.09375 L 371.09375 104.8125 L 371.3125 104.25 L 372.125 104.1875 C 372.10693 104.13216 372.11667 104.08937 372.09375 104.03125 C 372.01135 103.82234 371.95265 103.59158 371.9375 103.34375 z M 372.125 104.21875 L 371.8125 104.5 L 372.15625 104.25 C 372.15244 104.23711 372.12908 104.2318 372.125 104.21875 z M 372.1875 104.40625 L 371.875 104.59375 L 372.25 104.625 C 372.24361 104.55809 372.20353 104.47938 372.1875 104.40625 z M 372.1875 105.125 L 371.59375 105.4375 L 371.71875 105.5 C 371.93189 105.43613 372.10534 105.30406 372.1875 105.125 z M 352.4375 105.28125 L 351.875 105.3125 L 351.875 105.75 L 352.96875 106 L 353.21875 105.78125 L 352.3125 105.65625 L 352.59375 105.46875 L 352.4375 105.28125 z M 370.90625 105.625 L 371.125 105.875 C 371.06461 105.80121 371.05478 105.73761 371.0625 105.6875 L 370.90625 105.625 z M 371.125 105.875 L 370.8125 106.46875 L 371.40625 107.1875 L 372.65625 107.8125 L 373.78125 107.8125 L 373.03125 108.3125 L 374.0625 108.5 L 374.3125 108.3125 C 373.92262 107.62517 373.3562 107.185 372.46875 106.75 C 371.76993 106.40745 371.3037 106.09333 371.125 105.875 z M 351.71875 105.90625 L 352.09375 106.34375 L 352.125 106 L 351.71875 105.90625 z M 352.5625 106.71875 L 350.40625 106.875 L 349.40625 107.3125 L 349.5625 107.03125 L 349.25 106.9375 L 348.84375 107.34375 L 349.0625 107 L 348.34375 106.78125 L 348 107.5625 L 348.1875 107.875 L 347.5 107.90625 L 347.8125 108.21875 L 347.5625 108.46875 L 347.375 108.40625 L 348.1875 109.15625 L 347.59375 108.875 L 347.84375 109.125 L 347.03125 108.90625 L 346.90625 109.25 L 346.84375 109.0625 L 346.59375 109.1875 L 347.25 110.03125 L 346.59375 109.9375 L 346.5 110.15625 L 347.09375 110.5625 L 346.875 110.65625 L 346.78125 110.78125 L 347.09375 110.84375 L 347.375 110.71875 L 346.875 111.1875 L 347.46875 111.3125 L 346.78125 111.3125 L 346.65625 111.46875 L 347.1875 111.65625 L 346.59375 111.625 L 346.40625 111.96875 L 346.46875 112.375 L 345.71875 112.46875 L 346.875 113.125 L 348.0625 112.21875 L 348.15625 112.53125 L 348.34375 112.5 L 347.6875 112.71875 L 347.46875 112.96875 L 347.78125 112.96875 L 347.34375 113.1875 L 347.875 113.28125 L 347.875 113.3125 L 347.375 113.28125 L 347.125 113.625 L 347.1875 114.125 L 346.8125 114.71875 L 347.09375 114.46875 L 346.90625 115.125 L 347.34375 115.0625 L 346.90625 115.53125 L 346.65625 116.53125 L 347.25 116.4375 L 347.3125 115.625 L 347.65625 115.25 L 347.40625 114.53125 L 348.375 113.875 L 347.625 114.625 L 347.8125 114.9375 L 347.9375 114.6875 L 348.15625 114.875 L 348.15625 114.6875 L 348.375 114.96875 L 348.5625 114.09375 L 348.65625 114.28125 L 348.84375 114 L 349 114.6875 L 349.4375 114.8125 L 348.625 114.75 L 348.75 115.65625 L 349.15625 116.0625 L 348.25 117.5 L 347.9375 117.6875 L 348.0625 117.90625 L 348.59375 118.5625 L 348.4375 118.0625 L 348.65625 117.875 L 349.625 118.40625 L 349.625 117.78125 L 350.5 118.15625 L 351.375 117.53125 L 352.5 117.53125 L 351.78125 117.84375 L 351.25 118.875 L 352.21875 120.125 L 352.53125 119.71875 L 352.90625 119.84375 L 352.5 120.59375 L 352.71875 121.1875 L 352.375 121.59375 L 353 122.28125 L 352.75 122.3125 L 352.5 121.96875 L 352.1875 122.0625 L 352.40625 122.4375 L 350.75 122.21875 L 350.0625 122.59375 L 348.875 123.71875 L 350.3125 123.40625 L 350.1875 124.25 L 350.59375 124.4375 L 349.96875 125.25 L 347.71875 126.21875 L 348.09375 126.59375 L 347.8125 126.6875 L 348.6875 126.53125 L 348.53125 126.78125 L 348.09375 126.84375 L 348.3125 127.03125 L 349.78125 126.59375 L 350.3125 126.84375 L 349.84375 127.15625 L 351 127.25 L 351.375 127.5625 L 353.59375 126.875 L 352.625 127.84375 L 352.5625 128.15625 L 350.0625 128.15625 L 349.3125 128.90625 L 349.28125 129.3125 L 348.65625 130 L 348.0625 130.15625 L 346.8125 131.25 L 347.71875 131.25 L 347.90625 131.53125 L 348.21875 130.90625 L 350.03125 130.5625 L 350.03125 130.1875 L 350.34375 130.625 L 351.0625 130.875 L 351.625 129.625 L 351.8125 129.5625 L 352.71875 129.46875 L 353.75 129.96875 L 354.78125 129.75 L 354.625 129.46875 L 355.4375 129.40625 L 356 129.03125 L 355.875 128.9375 L 357 129.15625 L 357.28125 129.4375 L 358.5625 129.1875 L 359.5 129.40625 L 361.9375 128.28125 L 362.03125 127.625 L 359.84375 127.46875 L 361 127.0625 L 360.875 126.75 L 360.5 126.75 L 361.625 126.46875 L 361.28125 126.09375 L 361.6875 126.09375 L 361.46875 125.90625 L 361.84375 126.15625 L 362.34375 125.75 L 362.71875 124.46875 L 362.5625 123.875 L 361.75 123.375 L 360.4375 123.21875 L 359.59375 123.71875 L 359.03125 123.5 L 359.75 122.75 L 358.375 121.1875 L 357.71875 121.1875 L 358.40625 121.09375 L 359.21875 121.4375 L 358.5625 119.90625 L 357.34375 118.75 L 356.34375 118.28125 L 355.53125 115.84375 L 353.96875 114.75 L 351.5 114.59375 L 351.03125 114.375 L 351.75 114.5625 L 352.6875 114 L 353.3125 113.9375 L 352.90625 113.28125 L 354.25 112.03125 L 354.625 110.96875 L 355.21875 110.28125 L 355.125 109.84375 L 352 109.5 L 350.3125 109.90625 L 349.96875 110.1875 L 350.03125 109.65625 L 350.6875 109.34375 L 349.65625 108.96875 L 350.375 109.0625 L 350.28125 108.84375 L 352.15625 107.75 L 352.5625 106.71875 z M 350.0625 122.59375 L 350.375 122.34375 L 349.8125 122 L 349.3125 122.0625 L 349.71875 122.8125 L 350.0625 122.59375 z M 345.8125 107.28125 L 344.78125 107.625 L 344.25 108.125 L 343.9375 108.03125 L 343.84375 108.71875 L 344.46875 108.96875 L 344.78125 109.03125 L 344.59375 108.6875 L 344.78125 108.5 L 344.96875 108.9375 L 345.4375 108.59375 L 344.90625 108.4375 L 345.40625 108.28125 L 345.375 108.0625 L 345.84375 108.03125 L 345.8125 107.28125 z M 344.46875 108.96875 L 343.8125 109.1875 L 344.125 109.5 L 344.625 109.15625 L 344.46875 108.96875 z M 374.34375 108.34375 L 374.09375 108.71875 L 374.5 108.625 C 374.45467 108.52009 374.39555 108.43797 374.34375 108.34375 z M 345.5625 109.59375 L 345.28125 110.21875 L 344.875 109.84375 L 344.875 110.34375 L 344.6875 110.15625 L 344.5625 110.28125 L 345.4375 110.71875 L 345.25 110.84375 L 346.5 111.125 L 346.1875 111.59375 L 346.9375 110.90625 L 345.90625 110.75 L 345.90625 109.96875 L 345.5625 109.59375 z M 343 109.75 L 343.25 110 L 343.25 110.03125 L 343.40625 110.15625 L 343.75 110.125 L 343.90625 109.78125 L 343 109.75 z M 343.21875 110.25 L 343.46875 110.46875 L 343.59375 110.3125 L 343.21875 110.25 z M 343.3125 110.4375 L 343.125 111 L 343.25 111.28125 L 343.59375 111.375 L 343.34375 110.96875 L 343.65625 110.75 L 343.3125 110.4375 z M 345.375 111.53125 L 345.25 111.625 L 345.53125 111.84375 L 345.65625 111.5625 L 345.375 111.53125 z M 343 111.625 L 343 111.8125 L 343.21875 111.71875 L 343 111.625 z M 345.75 112.71875 L 345.5625 113 L 346.1875 113.25 L 346.09375 113.5 L 345.5 113.625 L 345.65625 113.84375 L 346.625 113.65625 L 346.96875 113.3125 L 346.28125 113.0625 L 346.0625 112.71875 L 345.75 112.71875 z M 346.875 114.1875 L 346.0625 114.84375 L 346.28125 115.21875 L 346.875 114.1875 z M 345.9375 114.8125 L 345.21875 115.15625 L 345.65625 115.25 L 345.625 115.84375 L 346.15625 115.53125 L 345.9375 114.8125 z M 347.71875 115.40625 L 347.5625 115.53125 L 347.96875 116.25 L 348.15625 115.875 L 347.71875 115.40625 z M 343.3125 116.40625 L 343.53125 116.6875 L 343 116.65625 L 343.125 117.3125 L 342.78125 117.34375 L 342.9375 117.125 L 342.6875 116.6875 L 342.46875 116.75 L 342.59375 117.1875 L 342.375 116.78125 L 341.625 117.125 L 341.34375 117.03125 L 340.75 118.15625 L 340.25 118.34375 L 341.65625 118.5 L 341.125 119 L 340.84375 119.75 L 339.78125 119.53125 L 339.53125 119.875 L 339.125 119.46875 L 339.125 119.4375 L 338.125 119.40625 L 337.8125 119.75 L 337.6875 119.5 L 337.5 119.625 L 338 120.03125 L 337.8125 120.6875 L 338.59375 120.65625 L 337.90625 121.03125 L 338.3125 121.46875 L 337.28125 121.625 L 337.53125 121.9375 L 337.3125 122 L 338.59375 122.09375 L 338.5 122.5 L 339.90625 122.4375 L 339.8125 122.75 L 339.21875 122.78125 L 338.8125 123.34375 L 338.75 123.875 L 337.84375 124.40625 L 339.90625 123.8125 L 340.375 124.09375 L 338.46875 124.375 L 337.8125 124.8125 L 338.21875 125.25 L 337.78125 125.3125 L 337.59375 125.09375 L 336.71875 125.4375 L 337.3125 125.65625 L 338.15625 125.53125 L 336.875 126.28125 L 338.5625 126.3125 L 337.9375 126.71875 C 338.5277 126.80948 339.23531 126.81721 340.0625 126.65625 L 341.1875 126.4375 L 341.21875 126.40625 L 341.25 126.40625 L 342 126.28125 L 343 125.6875 L 343.5 125.625 L 344.03125 125.59375 L 344.03125 125.5625 L 344.09375 125.1875 L 344.25 125.53125 L 344.5625 125.25 L 345.40625 125.46875 L 345.15625 124.96875 L 345.46875 124.90625 L 346.21875 123.28125 L 346.03125 121.59375 L 345.40625 120.59375 L 345.96875 120.375 L 345.6875 120.09375 L 346.0625 120.25 L 347.15625 119.53125 L 346.84375 119.34375 L 346.96875 119.03125 L 347.25 119.40625 L 347.3125 119.125 L 347.125 118.4375 L 346.40625 118.5 L 346.875 118.03125 L 346.0625 116.9375 L 345.0625 116.84375 L 343.53125 117.28125 L 344.21875 116.8125 L 343.3125 116.40625 z M 349.71875 119.1875 L 349.25 119.4375 L 348.78125 120.15625 L 349.1875 120.1875 L 349.8125 119.5 L 349.71875 119.1875 z M 337.75 120.3125 L 337.125 120.40625 L 337.78125 120.6875 L 337.75 120.3125 z M 369.40625 122.65625 L 369.125 123.1875 L 369.46875 122.90625 L 369.40625 122.65625 z M 369.3125 123.40625 L 369.0625 123.5 L 368.8125 124.28125 C 368.84415 124.22947 368.87598 124.17688 368.90625 124.125 C 369.05501 123.87 369.17109 123.61947 369.3125 123.40625 z M 363.375 128.78125 L 362.375 129.0625 L 362.4375 129.5625 C 362.73331 129.27654 363.054 129.03201 363.375 128.78125 z M 356.21875 129.34375 L 355.65625 129.625 L 356.25 129.84375 L 356.71875 129.5625 L 356.21875 129.34375 z M 354.84375 132.15625 L 355.34375 133.21875 C 355.15779 132.84647 354.77175 132.59375 354.3125 132.59375 C 353.67846 132.59375 353.15625 133.07152 353.15625 133.6875 C 353.15625 133.99549 353.29019 134.2645 353.5 134.46875 C 354.32578 134.42893 354.97501 134.32421 355.34375 134.15625 C 355.35034 134.14273 355.36895 134.1388 355.375 134.125 C 355.43386 133.99066 355.46875 133.8415 355.46875 133.6875 C 355.46875 133.54402 355.4264 133.40544 355.375 133.28125 L 355.5 133.53125 L 355.65625 133.5 C 355.50879 133.1862 355.77635 132.93327 356.3125 132.78125 L 356.21875 132.65625 L 356.28125 132.25 L 355.5625 132.375 L 354.84375 132.15625 z M 355.6875 133.59375 L 355.71875 133.84375 C 355.75025 133.76239 355.73765 133.68641 355.6875 133.59375 z M 352.40625 134.46875 L 352.25 134.53125 C 352.32363 134.52799 352.39232 134.53334 352.46875 134.53125 L 352.40625 134.46875 z M 349.59375 135.25 L 348.8125 135.40625 L 348.84375 135.875 L 349.59375 135.71875 C 349.48521 135.55326 349.49085 135.39985 349.59375 135.25 z M 349.65625 135.78125 L 349.53125 135.875 L 349.6875 135.84375 C 349.6707 135.82649 349.6707 135.79848 349.65625 135.78125 z M 349.78125 135.9375 L 349.71875 136 L 349.15625 136.03125 L 349.28125 136.3125 L 349.75 136.21875 L 349.6875 136.46875 L 348.9375 136.65625 L 349.6875 137.28125 L 350.40625 137.03125 L 351.46875 137.375 L 352.3125 138.125 L 352.34375 137.84375 L 352.84375 137.75 L 353.75 138.21875 L 353.5625 138.40625 L 353.71875 138.625 L 354.53125 138.65625 C 353.71542 137.68858 352.73107 136.95759 351.625 136.6875 C 350.71801 136.46603 350.10403 136.20261 349.78125 135.9375 z M 354.40625 138.6875 L 354.21875 139.03125 L 354.75 139.3125 L 354.46875 139.84375 L 355.15625 140.71875 L 355.90625 140.96875 C 355.58133 140.15195 355.1374 139.37851 354.59375 138.71875 L 354.40625 138.6875 z M 356.375 142.59375 L 356.34375 142.75 L 356.40625 142.8125 C 356.39585 142.73962 356.38759 142.66657 356.375 142.59375 z M 373.8125 147 C 373.62678 147.03297 373.44588 147.1403 373.21875 147.28125 C 372.55502 147.69316 370.473 148.02525 368.625 148.03125 C 366.01117 148.03963 365.20565 148.4531 364.96875 149.90625 C 364.80127 150.93363 363.3073 152.59761 361.65625 153.625 C 359.86847 154.73746 358.3661 156.69426 357.90625 158.4375 C 357.00733 161.84517 354.14879 163.93065 349.46875 164.59375 C 343.82886 165.39284 342.75922 162.705 344.84375 153.03125 C 345.01745 152.22513 344.09474 151.70883 342.25 151.59375 C 341.50722 151.54741 340.82444 151.62484 340.03125 152 L 340.0625 152.40625 L 340.34375 152.28125 L 340.21875 152.4375 L 340.0625 152.65625 L 340.5625 154.25 L 340.40625 155.3125 L 340.5625 155.09375 L 340.625 155.28125 L 340.3125 155.625 L 340.03125 156.9375 L 339.40625 158.5 L 339.09375 158.78125 L 338.78125 160.0625 L 339.3125 160.21875 L 339.84375 159.65625 L 339.96875 160.0625 L 339.6875 160.4375 L 339.25 160.3125 L 339.375 160.90625 L 340.34375 160.53125 L 340.5625 160.875 L 340.25 160.96875 L 340.0625 160.75 L 340.25 163.21875 L 339.84375 164.21875 L 340.84375 163.9375 L 342.25 164.25 L 343.15625 163.6875 L 344.3125 163.65625 L 344.25 163.875 L 345.25 164.625 L 345.6875 164.53125 L 345.25 164.9375 L 346.125 166.21875 L 347.03125 166.65625 L 347.59375 166.3125 L 347.625 166.3125 L 347.8125 165.9375 L 349.59375 164.96875 L 352.3125 164.90625 L 353.21875 165.03125 L 354.09375 164.6875 L 354.46875 164.90625 L 355.53125 163.375 L 357.4375 162.875 L 357.15625 162.59375 L 357.90625 161.15625 L 359.5 160.125 L 358.90625 159.78125 L 358.5 159.15625 L 358.28125 158.53125 L 358.59375 157.75 L 361.03125 154.53125 L 362.46875 154.125 L 365.75 152.46875 L 365.625 151.65625 L 366.0625 151.34375 L 365.75 151.0625 L 365.34375 150 L 365.90625 149.09375 L 367.6875 148.21875 L 369.71875 148.5625 L 369.6875 148.71875 L 370.34375 148.75 L 370.40625 149.0625 L 371.09375 149.15625 L 371.4375 149.5 L 372.125 149.5 L 374.8125 147.8125 C 374.583 147.17758 374.25358 146.9217 373.8125 147 z M 346.53125 147.96875 L 346.40625 148 C 346.46555 148.00714 346.53311 147.99316 346.59375 148 L 346.53125 147.96875 z M 372.5625 164.09375 L 372.53125 164.125 L 372.625 164.125 L 372.5625 164.09375 z M 367.59375 164.53125 L 366.21875 164.8125 C 366.88503 164.71478 367.55332 164.62568 368.1875 164.5625 L 367.59375 164.53125 z M 365.34375 164.75 L 364.84375 165.03125 C 365.13002 164.98101 365.40039 164.92036 365.6875 164.875 L 365.34375 164.75 z M 363.25 165.34375 L 362.625 165.375 L 360.5625 166 C 361.37569 165.76938 362.27397 165.54726 363.25 165.34375 z M 347.5 166.84375 L 346.375 167.15625 L 344.65625 170.90625 L 343.84375 171.75 L 340.78125 173.09375 L 339.21875 174.71875 L 338.90625 176.03125 L 338.90625 176.0625 L 338.03125 177.375 L 337.96875 179.125 L 338.5 179.65625 L 338.40625 180.21875 L 338.40625 180.28125 L 338.40625 180.3125 L 336.75 182.53125 L 333.90625 184.5625 L 331.375 185.1875 L 331.375 185.21875 L 330.90625 185.78125 L 329.90625 188 L 328.125 189.09375 L 328.125 189.125 L 327.40625 190.96875 L 327.21875 192.40625 L 325.34375 194.15625 L 323.84375 197.5625 L 322.9375 198.40625 L 322.65625 200.90625 L 322.96875 200.09375 L 323.71875 201.34375 L 324.03125 201.15625 L 324.46875 202.125 L 324.40625 203.03125 L 323.96875 203.78125 L 323.9375 203.875 L 324.25 203.65625 L 324.125 203.84375 L 323.875 204.15625 L 323.90625 204.15625 L 324.1875 204.4375 L 324.4375 204.71875 L 324.4375 204.75 L 324.8125 207.46875 L 323.78125 211 L 323.75 211.5625 L 323.34375 212.25 L 322.53125 213.28125 C 322.52455 213.58092 322.49445 213.88486 322.5 214.15625 L 323.15625 215.125 L 323.25 215.6875 L 323.28125 215.4375 L 323.5 215.375 L 323.3125 215.6875 L 323.40625 215.84375 L 323.5625 215.71875 L 323.6875 216.25 L 324.0625 216.78125 L 324.09375 216.78125 L 324.5 216.5625 L 326.40625 216.4375 L 324.53125 216.59375 L 324.5625 216.875 L 324.03125 217.03125 L 323.40625 216.46875 L 323.125 216.78125 L 323.3125 217.34375 L 323.28125 217.90625 C 323.35635 218.05407 323.44431 218.19961 323.53125 218.34375 L 323.6875 218.3125 L 323.5625 218.375 C 323.72097 218.6343 323.89494 218.89897 324.09375 219.15625 L 324.65625 218.90625 L 324.1875 219.25 C 324.19284 219.25673 324.18213 219.27451 324.1875 219.28125 L 324.34375 219.46875 C 324.43817 219.5825 324.52235 219.69655 324.625 219.8125 L 325.53125 219.5625 L 325.15625 219.6875 L 325.03125 220.09375 L 327.0625 219.65625 L 327.1875 220.0625 L 326.875 219.75 L 326.84375 219.75 L 326 220.03125 L 326.09375 220.5 L 326.3125 220.25 L 327 220.4375 L 326.5625 220.40625 L 326.53125 220.40625 L 325.96875 220.96875 L 326.46875 220.78125 L 326.125 221.0625 L 326.65625 221.21875 L 326.59375 221.5 L 326.96875 221.34375 L 327.03125 221.75 L 327.125 221.75 L 327.59375 221.6875 L 327.4375 222.0625 L 327.5 222.1875 L 327.5 222.21875 L 327.75 222.09375 L 327.6875 222.375 L 327.71875 222.34375 L 328.03125 221.96875 L 327.75 222.65625 L 328.03125 222.71875 L 328.1875 223.34375 L 328.875 223.65625 L 329.15625 223.375 L 329.53125 224.09375 L 329.8125 223.875 L 329.71875 224.28125 L 330.09375 224.25 L 329.75 224.8125 L 330.25 224.6875 L 330.46875 225.34375 L 330.8125 225.5 L 330.65625 225.78125 L 331.28125 226.15625 L 331.03125 226.1875 L 330.96875 226.625 L 331.40625 226.71875 L 331.5625 226.53125 L 331.21875 227.15625 L 330.6875 226.9375 L 330.875 227.46875 C 330.91037 227.50826 330.96223 227.52179 331 227.5625 L 331.34375 227.4375 L 331.53125 228.125 C 331.67194 228.25957 331.84184 228.38921 332 228.53125 L 332.40625 228.4375 L 332.46875 228.875 L 333.03125 228.8125 L 332.53125 228.9375 L 332.5 228.9375 L 332.53125 229.03125 C 332.77387 229.23678 333.07553 229.4431 333.34375 229.65625 L 334.5 230.1875 L 336.3125 231.65625 L 336.90625 231.78125 L 338.40625 233.1875 L 340.875 234.71875 L 342.96875 235.53125 L 346.5 234.125 L 350.4375 233.6875 L 348.78125 233.75 L 349.75 233.59375 L 350.75 233.625 L 350.46875 233.65625 L 352 233.90625 L 352.0625 233.53125 L 352.25 233.5625 L 352.34375 233.875 L 352.90625 233.8125 L 352.75 233.96875 L 352.40625 233.96875 L 352.375 233.96875 L 352.03125 233.9375 L 352.375 234 L 352.40625 234 L 354.78125 234.71875 L 355.65625 234.125 L 357.15625 233.78125 L 358.21875 233.15625 L 360.34375 232.4375 L 359.4375 231.9375 L 360.09375 232 L 360.46875 232.5625 L 360.5 232.59375 L 361.0625 232.53125 L 361.53125 231.90625 L 362.46875 231.65625 L 364.78125 231.34375 L 366.21875 231.28125 L 366.59375 231.09375 L 366.625 231.09375 L 368.5 231.40625 L 369.71875 232.5625 L 370.25 232.34375 C 370.24476 232.33674 370.25537 232.31949 370.25 232.3125 C 369.36814 231.164 366.7213 230.25706 364.5625 230.5625 C 363.34569 230.73467 362.875 230.15842 362.875 228.46875 C 362.875 227.18566 362.45959 225.05476 361.9375 223.71875 C 361.19556 221.8202 361.28915 221.16706 362.40625 220.75 C 364.33842 220.02865 364.19474 218.85859 361.90625 216.46875 C 359.29788 213.74486 359.44427 213.40352 363.59375 212.40625 C 366.87389 211.61791 367.22797 211.23138 367.5 208.03125 C 367.87526 203.6165 368.49627 204.18667 349.625 191.625 C 340.83948 185.7769 339.32599 183.69865 342.71875 182.125 C 347.97394 179.68748 350.99097 177.91877 351.65625 176.84375 C 352.07849 176.16147 353.2765 175.59375 354.3125 175.59375 C 355.96437 175.59375 356.11877 175.13187 355.59375 171.9375 C 355.27186 169.97904 355.19182 169.05282 355.75 168.34375 L 354.28125 168.8125 L 352.84375 168.46875 L 352.875 168.6875 L 352.65625 168 L 350.84375 168.53125 L 349.375 168.59375 L 348.15625 167.96875 L 347.59375 167.03125 L 347.5 166.84375 z M 370.25 232.34375 L 369.84375 232.6875 L 370.53125 232.84375 C 370.48844 232.67094 370.3737 232.50935 370.25 232.34375 z M 327.125 221.75 L 326.9375 222 L 327.125 222.15625 L 327.125 221.75 z M 357.6875 167.0625 L 357.21875 167.25 L 356.625 167.5625 L 356.5625 167.65625 C 356.86291 167.47189 357.24827 167.27363 357.6875 167.0625 z M 322.84375 173.125 C 322.20971 173.125 321.71875 173.63402 321.71875 174.25 C 321.71875 174.86598 322.20971 175.375 322.84375 175.375 C 323.47779 175.375 324 174.86598 324 174.25 C 324 173.63402 323.47779 173.125 322.84375 173.125 z M 330.375 182.28125 L 329.625 182.65625 L 329.65625 183.15625 L 330.25 182.8125 L 330.375 182.28125 z M 320.875 182.40625 C 320.24096 182.40625 319.71875 182.91527 319.71875 183.53125 C 319.71875 183.93105 319.95592 184.27185 320.28125 184.46875 C 319.79027 184.59532 319.40625 185.01443 319.40625 185.53125 C 319.40625 186.14723 319.92846 186.65625 320.5625 186.65625 C 321.1401 186.65625 321.60698 186.22697 321.6875 185.6875 C 321.88461 185.8423 322.13305 185.9375 322.40625 185.9375 C 322.94585 185.9375 323.34748 185.55075 323.46875 185.0625 L 323.5 185.03125 L 324.59375 183.71875 L 323.3125 184.15625 C 323.10302 183.88573 322.78153 183.71875 322.40625 183.71875 C 322.25812 183.71875 322.09875 183.73165 321.96875 183.78125 C 321.98885 183.69855 322.03125 183.61989 322.03125 183.53125 C 322.03125 182.91527 321.50904 182.40625 320.875 182.40625 z M 329.40625 183.34375 L 329.15625 183.4375 L 328.71875 184.53125 L 328.09375 184.90625 L 328.4375 184.9375 L 329.34375 184.4375 L 329.53125 183.71875 L 329.40625 183.34375 z M 321.3125 184.5625 C 321.3024 184.6038 321.28635 184.6445 321.28125 184.6875 C 321.24205 184.656 321.19965 184.61985 321.15625 184.59375 C 321.20835 184.58035 321.26359 184.5825 321.3125 184.5625 z M 326.125 184.65625 L 325.53125 184.6875 L 325.28125 185.03125 L 325.34375 185.40625 L 325.78125 185.625 L 326.25 185.3125 L 326.125 184.65625 z M 324.84375 218.0625 L 325.65625 218.40625 L 325.90625 218.09375 L 325.9375 218.25 L 325.6875 218.46875 L 325.65625 218.46875 L 324.5625 218.3125 L 324.84375 218.0625 z M 324.84375 219.8125 L 324.6875 219.875 C 324.69206 219.88009 324.68293 219.90115 324.6875 219.90625 C 324.71906 219.94142 324.78018 219.96455 324.8125 220 L 324.84375 219.8125 z M 332.25 228.78125 C 332.27234 228.80073 332.28989 228.82417 332.3125 228.84375 L 332.3125 228.78125 L 332.25 228.78125 z M 370.53125 232.90625 L 370.0625 233.03125 L 370.46875 233.375 L 370.59375 233.3125 C 370.57636 233.24064 370.5625 233.17032 370.5625 233.09375 C 370.5625 233.03191 370.5428 232.96775 370.53125 232.90625 z M 370.71875 233.625 L 370.65625 234 L 370.875 234.875 L 372 235.6875 L 372.46875 235.375 L 372.34375 235.65625 L 372.84375 235.59375 L 373 235.25 L 373.25 235.5625 L 373.3125 235.3125 L 373.625 235.5 L 373.5625 235.28125 L 373.96875 235.46875 L 373.84375 234.78125 L 373.9375 235.125 L 374.25 235.25 L 374.09375 234.75 L 374.375 234.875 L 374.65625 235.0625 L 374.6875 235.0625 L 374.75 235.0625 C 374.33134 234.57812 373.76259 234.4375 372.84375 234.4375 C 371.84315 234.4375 371.04574 234.1117 370.71875 233.625 z M 373 242.90625 C 372.36596 242.90625 371.84375 243.41527 371.84375 244.03125 C 371.84375 244.64723 372.36596 245.125 373 245.125 C 373.63404 245.125 374.15625 244.64723 374.15625 244.03125 C 374.15625 243.41527 373.63404 242.90625 373 242.90625 z M 370.96875 246.34375 C 370.56408 246.34375 370.22891 246.56484 370.03125 246.875 C 370.13788 246.81042 370.81839 246.75413 371.8125 246.71875 C 371.60062 246.49583 371.30205 246.34375 370.96875 246.34375 z M 370.03125 246.90625 C 369.92834 247.07698 369.84375 247.25587 369.84375 247.46875 C 369.84375 248.08473 370.33471 248.5625 370.96875 248.5625 C 371.60279 248.5625 372.125 248.08473 372.125 247.46875 C 372.125 247.45823 372.1253 247.44795 372.125 247.4375 L 372 247.40625 C 370.73919 247.14398 370.08306 246.99988 370.03125 246.90625 z M 328.375 259.90625 C 327.74096 259.90625 327.21875 260.41527 327.21875 261.03125 C 327.21875 261.64723 327.74096 262.125 328.375 262.125 C 329.00904 262.125 329.5 261.64723 329.5 261.03125 C 329.5 260.41527 329.00904 259.90625 328.375 259.90625 z M 346.875 276.6875 C 346.24096 276.6875 345.71875 277.16527 345.71875 277.78125 C 345.71875 278.39723 346.24096 278.90625 346.875 278.90625 C 347.50904 278.90625 348.03125 278.39723 348.03125 277.78125 C 348.03125 277.16527 347.50904 276.6875 346.875 276.6875 z M 332.875 323.875 C 332.24096 323.875 331.71875 324.38402 331.71875 325 C 331.71875 325.61598 332.24096 326.125 332.875 326.125 C 333.50904 326.125 334 325.61598 334 325 C 334 324.38402 333.50904 323.875 332.875 323.875 z M 337.6875 331.71875 C 337.05346 331.71875 336.53125 332.22777 336.53125 332.84375 C 336.53125 333.45973 337.05346 333.96875 337.6875 333.96875 C 338.32154 333.96875 338.84375 333.45973 338.84375 332.84375 C 338.84375 332.22777 338.32154 331.71875 337.6875 331.71875 z "
       id="path6842-8" />
  </g>
  <g
     inkscape:groupmode="layer"
     id="layer2"
     inkscape:label="lines"
     style="display:inline">
    <g
       style="opacity:0.1;fill:none;stroke:#000000;stroke-width:1.76745963;stroke-miterlimit:4;stroke-opacity:1;stroke-dasharray:none"
       id="tzlimits"
       transform="matrix(0.45921406,0,0,0.44613451,0.76223,0.83602148)" />
  </g>
  <style
     id="style3041"
     type="text/css">

	#utc-0430, #utc0330, #utc1130 {
		stroke: #none;
		fill: url(#strips01);
	}

	#utc-1200, #utc-0800, #utc-0400, #utc0000, #utc0400, #utc0800, #utc1200 {
		stroke: #none;
		fill: #cce53f;
	}

	#utc-0330, #utc0430 {
		stroke: #none;
		fill: url(#strips02);
	}

	#utc0845, #utc1245 {
		stroke: #none;
		fill: url(#strips03);
	}

	#utc-1100, #utc-0700, #utc-0300, #utc0100, #utc0500, #utc0900, #utc1300 {
		stroke: #none;
		fill: #80ce51;
	}

	#utc0530, #utc0930 {
		stroke: #none;
		fill: url(#strips04);
	}

	#utc0545 {
		stroke: #none;
		fill: url(#strips05);
	}

	#utc-1000, #utc-0600, #utc-0200, #utc0200, #utc0600, #utc1000, #utc1400 {
		stroke: #none;
		fill: #b3b744;
	}

	#utc-0930, #utc0630, #utc1030 {
		stroke: #none;
		fill: url(#strips06);
	}

	#utc-0900, #utc-0500, #utc-0100, #utc0300, #utc0700, #utc1100 {
		stroke: #none;
		fill: #fff880;
	}
	
	#water {
		fill:none;
		stroke:#00acd7;
		stroke-width:0.5;
		stroke-miterlimit:4;
		stroke-opacity:1;
		stroke-dasharray:none;
	}
	
	#borders {
		fill:none;
		stroke:#090c0d;
		stroke-width:1;
		stroke-miterlimit:4;
		stroke-opacity:1;
		stroke-dasharray:none;
	}
	
	#tzlimits {
		fill:none;
		stroke:#ff0000;
		stroke-width:0.8;
		stroke-miterlimit:4;
		stroke-opacity:1;
		stroke-dasharray:none;
	}
	
	#idl {
		fill:none;
		stroke:#090c0d;
		stroke-width:1.5;
		stroke-linecap:round;
		stroke-linejoin:round;
		stroke-miterlimit:4;
		stroke-opacity:1;
		stroke-dasharray:none;
	}
	
	#scale {
		fill:none;
		stroke:#090c0d;
		stroke-width:1;
		stroke-linecap:round;
		stroke-linejoin:round;
		stroke-miterlimit:4;
		stroke-opacity:1;
		stroke-dasharray:none;
	}
	
	#city_dots {
		stroke: #none;
		fill:   #090c0d;
	}

	.head {
	}
	
	.shaft {
		fill:none;
		stroke:#090c0d;
		stroke-width:0.625;
		stroke-linecap:butt;
		stroke-linejoin:miter;
		stroke-miterlimit:1;
		stroke-opacity:1;
		stroke-dasharray:none;
	}

</style>
</svg>
