<?xml version="1.0" encoding="UTF-8" standalone="no"?>
<!-- Created with Inkscape (http://www.inkscape.org/) -->

<svg
   xmlns:dc="http://purl.org/dc/elements/1.1/"
   xmlns:cc="http://creativecommons.org/ns#"
   xmlns:rdf="http://www.w3.org/1999/02/22-rdf-syntax-ns#"
   xmlns:svg="http://www.w3.org/2000/svg"
   xmlns="http://www.w3.org/2000/svg"
   xmlns:sodipodi="http://sodipodi.sourceforge.net/DTD/sodipodi-0.dtd"
   xmlns:inkscape="http://www.inkscape.org/namespaces/inkscape"
   width="768"
   height="382"
   viewBox="0 0 768.00001 381.99999"
   id="svg5064"
   version="1.1"
   inkscape:version="0.91 r13725"
   sodipodi:docname="timezone_-8.svg">
  <defs
     id="defs5066" />
  <sodipodi:namedview
     id="base"
     pagecolor="#ffffff"
     bordercolor="#666666"
     borderopacity="1.0"
     inkscape:pageopacity="0.0"
     inkscape:pageshadow="2"
     inkscape:zoom="3.3815104"
     inkscape:cx="384"
     inkscape:cy="191"
     inkscape:document-units="px"
     inkscape:current-layer="layer1"
     showgrid="false"
     units="px"
     inkscape:window-width="3200"
     inkscape:window-height="1688"
     inkscape:window-x="0"
     inkscape:window-y="60"
     inkscape:window-maximized="1" />
  <metadata
     id="metadata5069">
    <rdf:RDF>
      <cc:Work
         rdf:about="">
        <dc:format>image/svg+xml</dc:format>
        <dc:type
           rdf:resource="http://purl.org/dc/dcmitype/StillImage" />
        <dc:title></dc:title>
      </cc:Work>
    </rdf:RDF>
  </metadata>
  <g
     inkscape:label="Layer 1"
     inkscape:groupmode="layer"
     id="layer1"
     transform="translate(0,-670.36226)">
    <path
       inkscape:connector-curvature="0"
       style="color:#000000;clip-rule:nonzero;display:inline;overflow:visible;visibility:visible;opacity:0.5;isolation:auto;mix-blend-mode:normal;color-interpolation:sRGB;color-interpolation-filters:linearRGB;solid-color:#000000;solid-opacity:1;fill:#41aad8;fill-opacity:1;fill-rule:nonzero;stroke:none;stroke-width:1;stroke-linecap:butt;stroke-linejoin:miter;stroke-miterlimit:4;stroke-dasharray:none;stroke-dashoffset:0;stroke-opacity:1;color-rendering:auto;image-rendering:auto;shape-rendering:auto;text-rendering:auto;enable-background:accumulate"
       d="m 86.999996,670.36221 0,67.47656 c 0.22064,0 0.912109,0.20313 0.912109,0.20313 l 5.125,-15.36719 4.515625,-8.52539 7.65821,-4.44727 14.78906,-5.6914 0,-33.64844 -33.000004,0 z m -5.585938,116.42969 -1.371093,1.77539 -2.169922,0.66015 -2.34375,-0.29296 -4.074219,0.21484 -0.474609,0.70703 5.773437,8.16797 10.246094,7.83789 0,155.5 9,0 0,4.41016 0,3.58984 -9,0 0,82.99999 33.000004,0 0,-153.99999 12,0 0,-8 -12,0 0,-26 -10,0 0,-10 4,0 1.5,1 3.5,0 0,-4 -0.87695,-2.33203 -1.6875,-1.20117 -1.6875,-1.19922 -11.60938,-39.20117 -21.724612,-20.63672 z"
       id="path3431-3" />
    <path
       inkscape:connector-curvature="0"
       style="color:#000000;clip-rule:nonzero;display:inline;overflow:visible;visibility:visible;opacity:1;isolation:auto;mix-blend-mode:normal;color-interpolation:sRGB;color-interpolation-filters:linearRGB;solid-color:#000000;solid-opacity:1;fill:#b6cb55;fill-opacity:1;fill-rule:nonzero;stroke:none;stroke-width:1;stroke-linecap:butt;stroke-linejoin:miter;stroke-miterlimit:4;stroke-dasharray:none;stroke-dashoffset:0;stroke-opacity:1;marker:none;color-rendering:auto;image-rendering:auto;shape-rendering:auto;text-rendering:auto;enable-background:accumulate"
       d="m 58.054684,740.33291 a 0.47819037,0.47819037 0 0 0 -0.0332,0.17383 l 0,31.48047 a 0.47819037,0.47819037 0 0 0 0.400391,0.47266 l 2.158203,0.35546 a 0.47819037,0.47819037 0 0 0 0.339844,-0.0723 l 0.576172,-0.375 0.476562,-0.0176 -0.02734,0.14063 a 0.47819037,0.47819037 0 0 0 0.08594,0.375 l 0.162109,0.21679 0.775391,0.43555 -0.349609,-0.0273 2.728515,2.06054 0.167959,0.81057 a 0.47819037,0.47819037 0 0 0 0.685547,0.32812 l 1.005859,-0.51367 -0.269531,-0.37695 0.537109,0.24023 0.103516,-0.0527 0.123047,-0.01 -0.01367,-0.0215 0.05078,0.0195 0.251953,-0.0195 a 0.47819037,0.47819037 0 0 0 0.423828,-0.3418 l 0.183594,-0.6289 0.296875,-0.15821 a 0.47819037,0.47819037 0 0 0 0.248047,-0.34765 l 0.976563,-0.25 0.408203,0.53711 0.03516,-0.18555 -0.01172,0.2168 0.421875,0.55273 a 0.47819037,0.47819037 0 0 0 0.146485,0.12891 l 0.935547,0.52343 0.453124,0.68165 a 0.47819037,0.47819037 0 0 0 0.113282,0.11914 l 0.978515,0.72851 0.275391,-0.0449 -0.164062,0.12891 0.689453,0.51367 2.148437,3.0918 0.132813,0.2246 -0.05664,0.13477 a 0.47819037,0.47819037 0 0 0 0.05078,0.46289 l 1.00586,1.4082 a 0.47819037,0.47819037 0 0 0 0.230468,0.17383 l 2.548829,0.88867 0.919921,0.52539 0.03125,0.0996 0,0.002 0.0059,0.0215 -0.002,0.006 -0.0078,-0.0215 -0.195312,0.2832 a 0.47819037,0.47819037 0 0 0 -0.06641,0.39453 l 0.119141,0.4375 a 0.47819037,0.47819037 0 0 0 0.01367,0.043 0.47819037,0.47819037 0 0 0 0.002,0.004 0.47819037,0.47819037 0 0 0 0.002,0.0195 l 0.01172,0.0469 a 0.47819037,0.47819037 0 0 0 0.02539,0.0703 l 0.128907,0.3086 -0.941407,1.2539 a 0.47819037,0.47819037 0 0 0 -0.04492,0.4961 0.47819037,0.47819037 0 0 0 0,0.002 l 0.06836,0.0117 0.65625,-0.40625 0.78125,-1.0625 -0.21875,-0.8125 -0.125,-0.53125 0.3125,-0.5 -0.25,0.46875 0.0625,0.5625 0.34375,0.8125 -0.46875,0.5625 0.09375,0.25 0.71875,-1 -0.09375,-0.78125 0.53125,0.4375 0.1875,-0.0312 -0.34375,0.125 -0.75,1.1875 0.03125,0 0.75,0.0625 -0.90625,0.125 -0.21875,0.28125 0.15625,-0.0625 -0.21875,0.40625 0.65625,0.3125 -0.71875,-0.25 -0.3125,0.125 0.78125,0.4375 -0.1875,0.3125 0.125,0.25 -0.8125,-0.84375 -0.03125,-0.0312 -0.125,0.75 0.5,-0.0937 -0.0625,0.5 0.4375,0.125 1.28125,-0.1875 -0.96875,0.1875 0.4375,0.625 -0.6875,-0.5625 -0.0625,0.71875 1.78125,1.28125 0,-0.5 0.4375,-0.34375 -0.0625,-0.15625 0.1875,0.0937 -0.03125,-0.34375 0.28125,0.15625 0.53125,-0.5625 -0.1875,0.375 0.3125,0.125 -0.5,0.1875 -0.0625,0.46875 0.8125,0.5 0.125,0 -0.25,0.28125 -0.375,-0.375 -0.625,-0.21875 0.1875,0.71875 0.8125,0.46875 0.09375,0.8125 0,0.0312 0.46875,0.0625 0.375,-0.28125 -0.5,1.21875 -0.0625,0.125 -0.03125,0.0625 -0.125,0.3125 0.6875,-0.46875 0.09375,0.34375 0.03125,0 0.25,-0.15625 0.03125,0.5 0.3125,-0.375 0.25,0.15625 1.3125,-1.125 0.03125,0.15625 -0.53125,0.34375 0,0.0312 0.09375,0.34375 0.9375,0.0312 -0.40625,0.21875 0.4375,0.71875 -0.9375,-0.75 -0.59375,0.34375 0.0625,0.28125 -0.40625,0.15625 0.3125,-0.28125 -0.3125,0.0625 -0.125,0.4375 -0.40625,0.15625 -0.03125,0 0,0.625 0.34375,0.46875 0.28125,-0.0625 0.4375,-0.78125 -0.125,0.34375 1.5625,0.0312 0.03125,0 0.0625,-0.34375 0,0.40625 -1.78125,0.0625 -0.125,0.40625 -0.5,0.34375 1.09375,0.125 0.28125,-0.21875 -0.15625,0.25 -0.8125,0 -0.40625,0.3125 1.09375,0.28125 -0.46875,-0.0625 -0.09375,0.25 1.25,0.40625 0.1875,-0.21875 0.40625,0.1875 0.3125,-0.1875 0,-0.34375 0.75,0.3125 -0.8125,0.21875 0.875,0.0625 0.15625,0.15625 -0.28125,0.3125 0.03125,0 1.15625,-0.28125 -0.0625,-0.25 0.25,-0.15625 0.03125,0.125 -0.21875,0.0937 0.0625,0.25 -0.21875,0.21875 -1.1875,0.0937 0.65625,0 -0.65625,0.34375 1.40625,0.125 0.375,-0.65625 -0.28125,0.65625 0.4375,-0.21875 0.53125,0.28125 0.125,-0.0937 0.34375,-0.375 -0.15625,-0.53125 0.3125,-0.3125 -0.1875,0.375 0.09375,0.5625 -0.40625,0.28125 -0.0625,0.40625 0.1875,-0.28125 0.4375,0.3125 0.65625,-0.34375 -0.46875,0.3125 0.1875,0.375 -0.15625,0.53125 1.09375,0.59375 0.09375,-0.125 0.28125,0.625 0.875,2.03125 0.09375,0.15625 0,0.0312 0,0.0312 0.03125,0 0,0.0312 0.0625,0.125 0.03125,0.0937 -0.125,0.0312 -0.21875,-0.28125 0.125,-0.21875 -0.5,-0.4375 0.15625,-0.125 -0.4375,-0.5 -1.78125,-0.625 -1.40625,-2.34375 -3,-0.53125 -2.25,-0.9375 -1.03125,0.25 0.5625,0.8125 1.5,-0.3125 -0.28125,0.21875 0.25,0.375 -0.5,-0.3125 -0.53125,0.0937 -0.09375,0.3125 0.375,0.34375 -0.21875,0.25 0.96875,-0.15625 0.03125,0.34375 0.3125,-0.25 0.34375,0.0937 -0.25,0.40625 0.21875,0.25 0.65625,-0.25 0.34375,0.1875 0.15625,0.5 0.3125,-0.21875 -0.0625,0.28125 0.78125,0 -0.96875,0.25 -0.03135,0.46914 1.4375,-0.0312 -0.1875,0.5 0.4375,-0.3125 0.0625,0.53125 0.3125,-0.15625 -0.5,0.40625 1.90625,0.21875 0.3125,-0.6875 -0.0625,0.59375 -0.71875,0.5625 0.125,0.21875 3.28125,1.125 0.28125,-0.375 0.1875,0.0312 0.28125,0.65625 -1.4375,0.0312 -1.71875,-0.59375 0.125,1.0625 1,2.125 0.03125,0.625 0.1875,-0.3125 0.59375,0.21875 -0.5,0.34375 -0.1875,-0.125 0.09375,0.375 0.5625,0.15625 -0.28125,0.15625 0,0.625 -0.1875,-0.59375 -0.0625,0.84375 1.90625,0.25 -1.09375,0.1875 -0.625,-0.25 0.0625,2.40625 -0.46875,4.25 -0.28125,0.625 0.1875,-0.21875 0.125,0.25 -0.8125,1.3125 0.3125,0.46875 -0.03125,0.96875 0.46875,0.65625 -0.0625,3 0.28125,-0.1875 -0.625,1 0.84375,1.125 0.5,1.0625 -0.125,0.5 0.1875,1.03125 1.625,2 -0.09375,0.21875 0.1875,-0.15625 0.90625,0.59375 0,-0.6875 0.1875,-0.125 0.5625,0.28125 0.28125,-0.25 0.28125,0.1875 0.40625,-0.1875 -0.1875,0.21875 0.25,-0.0625 -0.125,0.15625 -1.375,0.0312 -0.09375,0.125 0.6875,1.1875 -0.59375,-0.34375 -0.0625,-0.46875 -0.21875,0.0937 -0.03125,0.5625 0.21875,0.78125 1.125,0.5625 0.15625,0.53125 -0.34375,0.34375 0.1875,0.65625 2.656252,3.0625 -0.0312,1.03125 2.28125,0.375 1.59375,0.9375 0.5625,-0.0937 0.28125,0.6875 0.65625,0 1.3125,0.96875 0.78125,1.875 1.6875,3.5625 0.59375,0.40625 0.0312,0.78125 0.375,0.1875 0.1875,1.0625 0.84375,0.8125 0.90625,0.375 1.84375,1.90625 -0.20312,1.09766 a 0.47819037,0.47819037 0 0 0 0.0879,0.01 l 2.79101,0 a 0.47819037,0.47819037 0 0 0 0.13867,-0.0215 l -0.1582,-0.52344 0,-0.34375 -0.53125,-0.15625 -2.1875,-2.59375 -0.90625,-0.78125 -0.625,-2.28125 0.0937,-1.4375 -0.25,-0.53125 -0.0312,-0.0937 1.47852,0.80664 a 0.47819037,0.47819037 0 0 0 -0.0527,-0.53516 l -1.00586,-1.20703 0.36524,-0.52343 a 0.47819037,0.47819037 0 0 0 0.0469,-0.084 l -0.0488,0.13086 0.10547,-0.0156 a 0.47819037,0.47819037 0 0 0 0.3457,-0.23047 L 115.5,844.59854 a 0.47819037,0.47819037 0 0 0 0.0644,-0.26953 l -0.0137,-0.23633 a 0.47819037,0.47819037 0 0 0 -0.26172,-0.40039 l -0.21875,-0.10938 -0.0273,-0.20508 0.2793,-0.35742 a 0.47819037,0.47819037 0 0 0 0.10156,-0.28125 l 0.0215,-0.72461 0.68946,-0.60351 a 0.47819037,0.47819037 0 0 0 -0.0137,-0.73047 l -0.43359,-0.35352 -0.43359,-1.08007 -0.23243,-2.04688 0.32032,0.11328 a 0.47819037,0.47819037 0 0 0 0.63676,-0.45117 l 0,-14 A 0.47819037,0.47819037 0 0 0 115.5,822.38369 l -5.52148,0 0,-1.52148 A 0.47819037,0.47819037 0 0 0 109.5,820.38369 l -1.52148,0 0,-3.23828 0.44531,-0.24414 0.63867,0.24219 a 0.47819037,0.47819037 0 0 0 0.64844,-0.44727 l 0,-0.30078 0.56445,-0.75 a 0.47819037,0.47819037 0 0 0 0.0488,-0.0801 l 0.64453,-1.3496 a 0.47819037,0.47819037 0 0 0 0.10547,0.0351 l 0.47461,0.0977 a 0.47819037,0.47819037 0 0 0 0.21679,-0.006 l 0.45508,-0.11914 0.54297,0.16992 a 0.47819037,0.47819037 0 0 0 0.43945,-0.082 l 0.40235,-0.31836 0.69336,0.32031 a 0.47819037,0.47819037 0 0 0 0.55078,-0.10742 l 0.42969,-0.46094 a 0.47819037,0.47819037 0 0 0 0.1289,-0.30273 l 0.0156,-0.33594 0.0781,-0.0488 a 0.47819037,0.47819037 0 0 0 0.20508,-0.52929 l -0.16797,-0.61524 0.29883,-1.14648 a 0.47819037,0.47819037 0 0 0 -0.39062,-0.59375 l -0.73633,-0.11328 -1.20703,-1.32618 a 0.47819037,0.47819037 0 0 0 -0.11133,-0.0898 l -0.50196,-0.29492 -0.008,-0.43164 a 0.47819037,0.47819037 0 0 0 -0.0859,-0.26172 l -0.61719,-0.89453 0.0137,-2.28906 a 0.47819037,0.47819037 0 0 0 -0.47852,-0.48047 l -0.95507,0 a 0.47819037,0.47819037 0 0 0 -0.0391,-0.55274 l -0.10351,-0.125 -0.13086,-0.5332 a 0.47819037,0.47819037 0 0 0 0.29687,-0.25195 l -0.084,0.01 0.0195,-0.0391 -0.0488,0.0117 a 0.47819037,0.47819037 0 0 0 0.15625,-0.12696 0.47819037,0.47819037 0 0 0 0.002,-0.0293 0.47819037,0.47819037 0 0 0 0.004,0 l 0.002,0.0195 a 0.47819037,0.47819037 0 0 0 0.0137,-0.0215 0.47819037,0.47819037 0 0 0 0.33203,-0.16992 l 0.0703,-0.084 a 0.47819037,0.47819037 0 0 0 0.0586,-0.51953 0.47819037,0.47819037 0 0 0 -0.0644,-0.42578 l -0.11719,-0.16602 0,-0.004 a 0.47819037,0.47819037 0 0 0 -0.29101,-0.51171 0.47819037,0.47819037 0 0 0 0.0117,-0.0391 l 0.0156,-0.0702 a 0.47819037,0.47819037 0 0 0 -0.043,-0.32227 l 0.14258,0.27149 a 0.47819037,0.47819037 0 0 0 -0.13669,-0.69922 l -0.0723,-0.043 a 0.47819037,0.47819037 0 0 0 -0.043,-0.0234 l 0.084,0.12696 a 0.47819037,0.47819037 0 0 0 -0.17383,-0.15821 0.47819037,0.47819037 0 0 0 -0.004,0 0.47819037,0.47819037 0 0 0 -0.0898,-0.0137 l 0.0606,0 a 0.47819037,0.47819037 0 0 0 -0.19922,-0.041 l -0.27929,-0.27149 -0.10743,0.20508 a 0.47819037,0.47819037 0 0 0 -0.22656,-0.6582 0.47819037,0.47819037 0 0 0 -0.0957,-0.0977 l -0.0723,-0.0566 a 0.47819037,0.47819037 0 0 0 0.0684,-0.17773 l -0.0645,0.0762 a 0.47819037,0.47819037 0 0 0 0.0684,-0.10742 0.47819037,0.47819037 0 0 0 -0.0156,-0.18946 l 0.0449,0.10547 a 0.47819037,0.47819037 0 0 0 -0.15625,-0.49023 l -0.10156,-0.084 a 0.47819037,0.47819037 0 0 0 -0.17187,-0.0898 l -0.0156,-0.004 0.0664,0.20313 a 0.47819037,0.47819037 0 0 0 -0.0781,-0.14453 l 0,0.14062 a 0.47819037,0.47819037 0 0 0 -0.0391,-0.18359 0.47819037,0.47819037 0 0 0 0,-0.002 0.47819037,0.47819037 0 0 0 -0.0508,-0.043 l -0.0254,-0.008 a 0.47819037,0.47819037 0 0 0 -0.18945,-0.0156 l 0.14648,-0.0215 a 0.47819037,0.47819037 0 0 0 -0.008,-0.004 l 0.0137,0.004 0.0606,-0.008 a 0.47819037,0.47819037 0 0 0 -0.0371,-0.0449 l -0.0274,-0.0293 a 0.47819037,0.47819037 0 0 0 -0.3789,-0.15039 l -0.25977,0.0156 a 0.47819037,0.47819037 0 0 0 -0.22461,0.0723 0.47819037,0.47819037 0 0 0 -0.0137,-0.008 l -0.0195,-0.0176 a 0.47819037,0.47819037 0 0 0 -0.008,-0.006 0.47819037,0.47819037 0 0 0 -0.008,-0.25195 l -0.0566,-0.18164 a 0.47819037,0.47819037 0 0 0 -0.26757,-0.29688 l -0.0352,-0.0156 0.0332,0.0312 -0.15625,0.19726 a 0.47819037,0.47819037 0 0 0 0.002,-0.01 0.47819037,0.47819037 0 0 0 0.0703,-0.24219 l -0.0723,-0.0293 a 0.47819037,0.47819037 0 0 0 -0.0137,-0.008 0.47819037,0.47819037 0 0 0 -0.0996,-0.16211 l 0.1875,0.17383 a 0.47819037,0.47819037 0 0 0 -0.25586,-0.4082 l 0.0371,0.0801 a 0.47819037,0.47819037 0 0 0 -0.0547,-0.0879 0.47819037,0.47819037 0 0 0 -0.002,-0.002 0.47819037,0.47819037 0 0 0 -0.23242,-0.0449 l 0.16797,-0.0234 a 0.47819037,0.47819037 0 0 0 -0.10352,-0.0684 l -0.20117,-0.0976 a 0.47819037,0.47819037 0 0 0 -0.10156,-0.0352 0.47819037,0.47819037 0 0 0 -0.002,-0.002 0.47819037,0.47819037 0 0 0 -0.0391,-0.0352 0.47819037,0.47819037 0 0 0 0.11328,-0.0293 l 0.0723,-0.0293 a 0.47819037,0.47819037 0 0 0 0.21094,-0.16797 l -0.0567,0.0273 a 0.47819037,0.47819037 0 0 0 0.0762,-0.0625 l 0.008,-0.008 a 0.47819037,0.47819037 0 0 0 0.0391,-0.084 l -0.0137,0.0586 a 0.47819037,0.47819037 0 0 0 0.11914,-0.35547 0.47819037,0.47819037 0 0 0 -0.10742,-0.54687 0.47819037,0.47819037 0 0 0 0,-0.002 0.47819037,0.47819037 0 0 0 -0.0449,-0.12109 0.47819037,0.47819037 0 0 0 0.008,-0.041 l -0.0156,0.0274 a 0.47819037,0.47819037 0 0 0 -0.0898,-0.11719 l -0.0293,-0.0273 a 0.47819037,0.47819037 0 0 0 -0.10156,-0.0723 0.47819037,0.47819037 0 0 0 -0.0606,-0.0508 l 0.30079,0.1914 a 0.47819037,0.47819037 0 0 0 -0.0508,-0.2246 l -0.0137,-0.0273 a 0.47819037,0.47819037 0 0 0 -0.0996,-0.13476 0.47819037,0.47819037 0 0 0 -0.0664,-0.10157 0.47819037,0.47819037 0 0 0 -0.14063,-0.33398 l -0.0137,-0.0137 a 0.47819037,0.47819037 0 0 0 -0.0742,-0.0605 l -0.002,0.002 a 0.47819037,0.47819037 0 0 0 -0.004,-0.006 0.47819037,0.47819037 0 0 0 -0.33008,-0.21093 l -0.0215,-0.0625 a 0.47819037,0.47819037 0 0 0 -0.15625,-0.2168 0.47819037,0.47819037 0 0 0 0,-0.002 0.47819037,0.47819037 0 0 0 -0.11524,-0.1836 l -0.0137,-0.0137 a 0.47819037,0.47819037 0 0 0 -0.0254,-0.0215 0.47819037,0.47819037 0 0 0 -0.11328,-0.1211 l 0.0312,0.0625 a 0.47819037,0.47819037 0 0 0 -0.008,-0.004 0.47819037,0.47819037 0 0 0 -0.0293,-0.0371 l 0.0156,0.0293 a 0.47819037,0.47819037 0 0 0 -0.004,0 0.47819037,0.47819037 0 0 0 -0.0371,-0.0566 0.47819037,0.47819037 0 0 0 -0.0137,-0.0156 0.47819037,0.47819037 0 0 0 -0.0156,-0.0137 0.47819037,0.47819037 0 0 0 -0.01,-0.008 0.47819037,0.47819037 0 0 0 -0.0137,-0.008 l -0.0293,-0.0137 a 0.47819037,0.47819037 0 0 0 -0.0156,-0.006 0.47819037,0.47819037 0 0 0 -0.004,-0.004 l 0.0332,0.01 a 0.47819037,0.47819037 0 0 0 -0.0547,-0.0312 l 0.0586,0.0684 c 0.0111,0.009 0.0308,0.0472 0.0234,0.0352 l -0.11719,-0.13672 a 0.47819037,0.47819037 0 0 1 0.0312,0.0293 l -8.970709,-10.34375 a 0.47819037,0.47819037 0 0 0 0.0957,0.0117 l -0.05469,-0.0684 a 0.47819037,0.47819037 0 0 0 0.08984,0.0703 0.47819037,0.47819037 0 0 0 0.09375,-0.0156 l -0.07422,0.0254 a 0.47819037,0.47819037 0 0 0 0.322265,0.0508 l -0.0332,0.01 0.04687,0.0215 a 0.47819037,0.47819037 0 0 0 0.304688,0.0391 l 0.01953,-0.004 a 0.47819037,0.47819037 0 0 0 0.121094,0.0508 l -0.04687,-0.0293 a 0.47819037,0.47819037 0 0 0 0.0625,0.0332 0.47819037,0.47819037 0 0 0 0.09375,0.0137 l -0.05859,0 a 0.47819037,0.47819037 0 0 0 0.173828,0.0273 0.47819037,0.47819037 0 0 0 0.002,0 0.47819037,0.47819037 0 0 0 0.138672,-0.0273 l -0.103516,0.043 a 0.47819037,0.47819037 0 0 0 0.376954,0.004 0.47819037,0.47819037 0 0 0 0.376953,0.0625 l 0.01953,-0.004 -0.05664,-0.0352 a 0.47819037,0.47819037 0 0 0 0.583985,-0.0664 l 0.08594,-0.084 a 0.47819037,0.47819037 0 0 0 0.01563,-0.0156 l -0.171875,0.0234 a 0.47819037,0.47819037 0 0 0 0.226563,-0.0957 0.47819037,0.47819037 0 0 0 0.06836,-0.17578 l -0.01758,0.13476 0.04492,-0.0352 a 0.47819037,0.47819037 0 0 0 0.173828,-0.29883 0.47819037,0.47819037 0 0 0 0.05273,-0.0937 l 0.36328,0.0215 a 0.47819037,0.47819037 0 0 0 0.17578,-0.0215 l 0.47266,-0.15234 a 0.47819037,0.47819037 0 0 0 0.11328,-0.0547 l 0.30078,-0.19531 a 0.47819037,0.47819037 0 0 0 0.16797,-0.18946 l 0.0644,-0.0156 0.22657,-0.0176 -0.002,-0.002 a 0.47819037,0.47819037 0 0 0 0.0879,0.0195 l 0.0215,-0.0605 a 0.47819037,0.47819037 0 0 0 -0.0156,0.0605 0.47819037,0.47819037 0 0 0 0.0293,0.002 0.47819037,0.47819037 0 0 0 0.10352,0.21289 l -0.14453,-0.13281 a 0.47819037,0.47819037 0 0 0 0.4414,0.49219 l 0.082,0.006 a 0.47819037,0.47819037 0 0 0 0.22657,0.10156 l 0.0859,0.0137 a 0.47819037,0.47819037 0 0 0 0.30664,-0.0547 l 0.12305,-0.0684 0.01,0 a 0.47819037,0.47819037 0 0 0 0.24023,-0.10547 0.47819037,0.47819037 0 0 0 0.0547,-0.0332 l 0.21875,-0.15234 a 0.47819037,0.47819037 0 0 0 0.20508,-0.39258 l 0,-8.25586 a 0.47819037,0.47819037 0 0 0 -0.62891,-0.45312 l -0.14453,0.0469 -8.097654,-0.041 -0.326172,-1.00781 a 0.47819037,0.47819037 0 0 0 -0.109375,-0.18359 l -0.503906,-0.5293 -0.02344,0.0352 a 0.47819037,0.47819037 0 0 0 0.02344,-0.45899 l -0.242979,-0.50029 a 0.47819037,0.47819037 0 0 0 -0.359375,-0.26367 l -0.458984,-0.0684 a 0.47819037,0.47819037 0 0 0 -0.519531,0.30664 l -0.03906,0.10547 -0.644531,0.15039 -1.023438,-0.31055 a 0.47819037,0.47819037 0 0 0 -0.496094,0.14063 l -0.03711,0.041 -0.148437,-0.0586 a 0.47819037,0.47819037 0 0 0 -0.625,0.28125 l 0.01953,-0.0547 -0.525391,0.0352 -0.537109,-1.83399 a 0.47819037,0.47819037 0 0 0 -0.369141,-0.33594 l -0.789062,-0.14843 -0.771485,-0.47657 -1.220703,-1.33007 a 0.47819037,0.47819037 0 0 0 -0.537109,-0.11914 l -0.302735,0.1289 -0.552734,-0.16015 0,-0.25391 -0.08594,0.0312 a 0.47819037,0.47819037 0 0 0 0.0059,-0.89649 l -0.597695,-0.22852 -0.230469,-0.63672 0.171875,-0.36328 a 0.47819037,0.47819037 0 0 0 -0.335938,-0.67383 l -0.347656,-0.0723 -0.189453,-0.16797 0.320313,-0.35156 a 0.47819037,0.47819037 0 0 0 -0.08789,-0.71875 l -0.496094,-0.33203 a 0.47819037,0.47819037 0 0 0 -0.169922,-0.73438 l -1.240234,-0.57812 -0.626953,-1.10742 a 0.47819037,0.47819037 0 0 0 -0.181641,-0.17969 l -0.617187,-0.34766 a 0.47819037,0.47819037 0 0 0 -0.476563,0.004 0.47819037,0.47819037 0 0 0 -0.169922,-0.17773 l -1.376954,-0.83788 a 0.47819037,0.47819037 0 0 0 -0.06836,-0.0332 l 0.08203,-0.0586 a 0.47819037,0.47819037 0 0 0 -0.05078,-0.8125 l -0.373047,-0.19922 0.845703,-0.92578 a 0.47819037,0.47819037 0 0 0 0.07617,-0.53125 l -0.380859,-0.7793 -0.08594,0.0723 a 0.47819037,0.47819037 0 0 0 -0.146484,-0.81836 l -0.587891,-0.20898 a 0.47819037,0.47819037 0 0 0 -0.402344,0.0391 l -0.134765,0.0781 a 0.47819037,0.47819037 0 0 0 -0.177735,-0.0684 l -0.429687,-0.0703 a 0.47819037,0.47819037 0 0 0 -0.279297,0.0391 l -0.318359,0.14648 0.03516,-0.50195 a 0.47819037,0.47819037 0 0 0 -0.296875,-0.47656 l 0.171875,-0.32617 a 0.47819037,0.47819037 0 0 0 0.01367,-0.41211 l -0.480469,-1.10352 -0.169922,0.12891 a 0.47819037,0.47819037 0 0 0 -0.287109,-0.85938 l -4.400391,-0.0117 -0.04883,-0.88672 a 0.47819037,0.47819037 0 0 0 -0.02539,-0.13476 l -0.314449,-0.87892 a 0.47819037,0.47819037 0 0 0 -0.152343,-0.21289 l -0.148438,-0.11914 0.05273,-3.87695 -0.490234,-0.16602 -5.46875,-1.875 -0.181641,-0.18164 -0.908203,-0.25 -0.615234,-0.0742 35.9375,41.4375 a 0.47819037,0.47819037 0 0 1 -0.0078,-0.002 l -35.933602,-41.4355 -2.572266,-0.30664 -0.476562,-0.18555 z m 35.226562,61.4668 -0.28125,-0.15625 0.28125,0.1875 0,-0.0312 z m -6.21875,-5.78125 0.75,-0.90625 -1.15625,0.625 -0.15625,0.71875 0.34375,-0.0937 0.15625,-0.3125 0.03125,-0.0312 0.03125,0 z m -1.53125,-0.84375 0,-0.125 0.09375,-0.0625 -0.1875,-0.875 -0.1875,1.15625 0.0625,-0.0312 0.15625,-0.0312 0.0625,-0.0312 z m 16.683594,-14.53906 a 0.47819037,0.47819037 0 0 0 -0.20117,0.28906 l -0.0547,-0.12109 0.25586,-0.16797 z m 0.46875,0.27148 -0.0723,0.27735 -0.14063,-0.0273 a 0.47819037,0.47819037 0 0 0 0.21289,-0.25 z m -5.916016,1.17383 a 0.47819037,0.47819037 0 0 0 0.271484,0.18164 l 8.945322,10.31641 a 0.47819037,0.47819037 0 0 0 -0.0117,-0.006 l 0.0273,0.0273 a 0.47819037,0.47819037 0 0 0 -0.0566,-0.0215 l 0.0234,0.0391 a 0.47819037,0.47819037 0 0 0 -0.0274,-0.0391 0.47819037,0.47819037 0 0 0 -0.13281,-0.0215 l 0.11524,0 a 0.47819037,0.47819037 0 0 0 -0.006,-0.006 0.47819037,0.47819037 0 0 0 -0.14063,-0.0234 l 0.11914,0 a 0.47819037,0.47819037 0 0 0 -0.0117,-0.0117 0.47819037,0.47819037 0 0 0 -0.10351,-0.0332 l -0.0703,-0.0137 a 0.47819037,0.47819037 0 0 0 -0.0918,-0.01 l 0.18945,0 a 0.47819037,0.47819037 0 0 0 -0.24805,-0.0703 l -0.002,0 -0.004,0 a 0.47819037,0.47819037 0 0 0 -0.32226,0.0371 l -0.0234,0.0117 -0.0234,0.01 a 0.47819037,0.47819037 0 0 0 -0.0527,0.0312 0.47819037,0.47819037 0 0 0 -0.0332,-0.0918 l -0.0115,-0.025 a 0.47819037,0.47819037 0 0 0 -0.11719,-0.14844 l 0.0391,0.0801 0.002,0 0.0234,0.0488 a 0.47819037,0.47819037 0 0 1 0.002,0.002 l 0.041,0.084 -0.006,-0.006 a 0.47819037,0.47819037 0 0 0 -0.30078,-0.12891 l 0.20117,0 a 0.47819037,0.47819037 0 0 0 -0.26953,-0.084 l 0.26367,0 a 0.47819037,0.47819037 0 0 0 -0.0176,-0.0137 l -0.0723,-0.0547 a 0.47819037,0.47819037 0 0 0 -0.0859,-0.0527 l -0.0293,-0.0137 a 0.47819037,0.47819037 0 0 0 -0.20313,-0.0449 l -0.0137,0 a 0.47819037,0.47819037 0 0 0 -0.0664,0.006 0.47819037,0.47819037 0 0 0 -0.0195,-0.004 l 0.01,0.004 a 0.47819037,0.47819037 0 0 0 -0.008,0.002 0.47819037,0.47819037 0 0 0 -0.0293,-0.008 0.47819037,0.47819037 0 0 0 -0.0293,-0.002 l 0.0234,0 a 0.47819037,0.47819037 0 0 0 -0.0898,-0.0137 0.47819037,0.47819037 0 0 0 -0.0156,-0.008 0.47819037,0.47819037 0 0 0 0.043,-0.19531 l 0,-0.0137 a 0.47819037,0.47819037 0 0 0 -0.0273,-0.15625 l 0,0.043 a 0.47819037,0.47819037 0 0 0 -0.002,-0.0469 0.47819037,0.47819037 0 0 0 -0.0156,-0.043 l -0.0137,-0.0293 a 0.47819037,0.47819037 0 0 0 -0.0801,-0.11718 l 0.084,0.082 a 0.47819037,0.47819037 0 0 0 -0.13672,-0.20508 l -0.0156,-0.0137 a 0.47819037,0.47819037 0 0 0 -0.0293,-0.0234 0.47819037,0.47819037 0 0 0 -0.0586,-0.0645 l -0.0293,-0.0273 a 0.47819037,0.47819037 0 0 0 -0.0684,-0.0527 0.47819037,0.47819037 0 0 0 -0.30078,-0.25391 l -0.0664,-0.13867 -0.0312,-0.11523 a 0.47819037,0.47819037 0 0 0 -0.16992,-0.25 l 0,-0.0254 a 0.47819037,0.47819037 0 0 0 -0.53516,-0.47461 l -0.21875,0.0254 -0.0176,-0.008 a 0.47819037,0.47819037 0 0 0 -0.10743,-0.0371 0.47819037,0.47819037 0 0 0 -0.0293,-0.0606 l -0.0859,-0.15234 a 0.47819037,0.47819037 0 0 0 -0.0547,-0.0781 0.47819037,0.47819037 0 0 0 -0.0898,-0.18164 l -0.0996,-0.125 a 0.47819037,0.47819037 0 0 0 -0.18555,-0.14258 0.47819037,0.47819037 0 0 0 -0.002,0 0.47819037,0.47819037 0 0 0 -0.5,-0.29883 l -0.11523,0.0137 a 0.47819037,0.47819037 0 0 0 -0.082,0.0156 0.47819037,0.47819037 0 0 0 -0.40234,-0.18555 l -0.27148,0.0137 a 0.47819037,0.47819037 0 0 0 -0.002,0 0.47819037,0.47819037 0 0 0 -0.0391,-0.23243 l -0.043,-0.0977 a 0.47819037,0.47819037 0 0 0 -0.0312,-0.0547 0.47819037,0.47819037 0 0 0 -0.004,-0.008 0.47819037,0.47819037 0 0 0 -0.0859,-0.14453 l -0.0859,-0.0977 a 0.47819037,0.47819037 0 0 0 -0.18359,-0.12891 l -0.11719,-0.0449 -0.123052,-0.0898 a 0.47819037,0.47819037 0 0 0 -0.244141,-0.0898 l -0.515625,-0.4746 a 0.47819037,0.47819037 0 0 0 -0.05273,-0.041 l 0.0293,0.21289 a 0.47819037,0.47819037 0 0 0 -0.128907,-0.26563 0.47819037,0.47819037 0 0 0 -0.05664,-0.0195 0.47819037,0.47819037 0 0 0 -0.002,-0.006 l 0.03711,0.004 a 0.47819037,0.47819037 0 0 0 -0.05469,-0.043 0.47819037,0.47819037 0 0 0 -0.107422,-0.14062 l -0.359375,-0.32032 a 0.47819037,0.47819037 0 0 0 -0.304688,-0.12109 l 0.0957,0 -0.101562,-0.12109 a 0.47819037,0.47819037 0 0 0 -0.597656,-0.11328 l -0.03711,0.0215 a 0.47819037,0.47819037 0 0 0 -0.002,-0.0215 l -0.01367,-0.1543 a 0.47819037,0.47819037 0 0 0 -0.421875,-0.43164 l -0.02734,-0.0859 a 0.47819037,0.47819037 0 0 0 -0.367188,-0.32812 l -0.04492,-0.008 a 0.47819037,0.47819037 0 0 0 -0.04883,-0.0527 0.47819037,0.47819037 0 0 0 -0.101562,-0.15234 0.47819037,0.47819037 0 0 0 -0.04883,-0.13282 l -0.138671,-0.25 0.0332,-0.23047 a 0.47819037,0.47819037 0 0 0 -0.173829,-0.4414 0.47819037,0.47819037 0 0 0 0.0039,-0.0117 l 0.02734,0.0137 0.0039,-0.0371 a 0.47819037,0.47819037 0 0 0 0,-0.0625 0.47819037,0.47819037 0 0 0 0.01367,-0.0879 l 0.01367,-0.23828 a 0.47819037,0.47819037 0 0 0 -0.259765,-0.45313 l -0.0332,-0.1875 a 0.47819037,0.47819037 0 0 0 -0.199219,-0.30859 0.47819037,0.47819037 0 0 0 0.0039,-0.0488 l 0.25586,-0.0781 a 0.47819037,0.47819037 0 0 0 0.230468,-0.15821 l 0.05859,-0.0742 -0.101562,-0.0273 a 0.47819037,0.47819037 0 0 0 0.304687,-0.0156 l 0.3125,-0.12305 z m 2.173828,0.0937 -0.06641,0.23438 -0.109375,0.0117 a 0.47819037,0.47819037 0 0 0 0.0039,-0.004 l 0.05664,-0.0566 a 0.47819037,0.47819037 0 0 0 0.115234,-0.18555 z m -0.537109,0.0215 a 0.47819037,0.47819037 0 0 0 0.09375,0.2168 l -0.06055,-0.0195 -0.0332,-0.19727 z m -0.695313,0.0723 a 0.47819037,0.47819037 0 0 0 0.125,0.12109 l -0.04102,0 -0.08398,-0.12109 z m -1.669922,1.83984 -0.01172,0.13672 -0.322266,0 a 0.47819037,0.47819037 0 0 0 0.333984,-0.13672 z m 0.294922,0.83399 0.03125,0.0117 0,0.006 a 0.47819037,0.47819037 0 0 0 -0.03125,-0.0176 z m -0.162109,0.41015 a 0.47819037,0.47819037 0 0 0 -0.08398,0.0977 l 0.04687,-0.0918 0.03711,-0.006 z m 0.203125,0.0684 0.01367,0.0801 -0.242188,0.084 a 0.47819037,0.47819037 0 0 0 0.228518,-0.16414 z m 0.335938,0.0684 0.05078,0.0254 -0.06641,0.15821 a 0.47819037,0.47819037 0 0 0 0.01563,-0.1836 z m 0.08789,0.19141 0.002,0.0176 a 0.47819037,0.47819037 0 0 0 -0.08008,0.0469 l 0.07813,-0.0645 z m 0.455078,0.46484 0.01367,0.041 a 0.47819037,0.47819037 0 0 0 -0.189453,-0.008 l 0.175781,-0.0332 z m 0.328125,0.21875 0.05273,0.0195 0.01758,0 0.01172,0.0117 0.04102,0.0156 -0.0059,0.0195 0,0.002 -0.08008,0.33008 a 0.47819037,0.47819037 0 0 0 -0.06836,-0.37891 l 0.07422,0 a 0.47819037,0.47819037 0 0 0 -0.04297,-0.0195 z m -0.322265,0.0195 0.05273,0 -0.03125,0.041 -0.05469,0.0684 0.0332,-0.10938 z m 1.689453,0.95118 0.07617,0.11718 -0.253907,0.20313 a 0.47819037,0.47819037 0 0 0 0.177735,-0.32031 z m 0.414062,0.33007 0.212891,0 0.01953,0.0312 a 0.47819037,0.47819037 0 0 0 -0.05469,0.004 0.47819037,0.47819037 0 0 0 -0.177735,-0.0352 z m -0.226562,0.3086 a 0.47819037,0.47819037 0 0 0 0.01758,0.45898 l -0.220703,-0.30469 0.203125,-0.15429 z m -17.511719,0.0449 -0.5625,0.34375 0.125,0 0.4375,-0.34375 z m 0,0 -0.3125,0.0625 -0.3125,0.28125 0.625,-0.34375 z m 18.666024,0.74805 0.0664,0 a 0.47819037,0.47819037 0 0 0 -0.15625,0.17578 l 0.0898,-0.17578 z m 0.31836,0.002 0.0332,0.0156 a 0.47819037,0.47819037 0 0 0 -0.0312,-0.0117 0.47819037,0.47819037 0 0 0 -0.002,-0.004 z m 0.50195,0.13672 0.006,0.006 a 0.47819037,0.47819037 0 0 0 -0.0469,0.006 l 0.041,-0.0117 z m -0.0332,0.0723 a 0.47819037,0.47819037 0 0 0 -0.12109,0.20313 l 0.0332,-0.17969 0.0879,-0.0234 z m 1.47657,1.03907 0.0195,0.0176 -0.0371,0.13476 a 0.47819037,0.47819037 0 0 0 0.0176,-0.15234 z m -27.117194,0.2207 -0.09375,1.0625 0.28125,0.0937 -0.0625,0.25 0.28125,0.1875 -0.21875,0.0312 0.1875,0.28125 1.03125,0.5 -0.28125,0 -0.3125,0.15625 0.375,0.28125 1.125,-0.28125 0.09375,-1 0.5625,-1.53125 -0.625,0.375 -0.4375,-0.0312 0.03125,0.0937 0.15625,0.3125 -0.28125,0.59375 -0.5625,0.3125 0.25,-0.28125 -0.25,0.0625 0.75,-0.59375 -0.0625,-0.40625 -0.28125,-0.3125 -0.5,0.1875 -0.28125,-0.28125 -0.875,-0.0625 z m 27.443364,0.041 0.0312,0.0215 a 0.47819037,0.47819037 0 0 0 -0.16211,0.0918 l 0.13086,-0.11328 z m -21.630864,0.24023 -0.5625,0.125 -0.25,0.4375 0.75,0.0937 0.28125,-0.34375 -0.21875,-0.3125 z m 22.369144,0.33008 c 0.004,-0.005 0.005,-0.002 0.0273,0.0371 a 0.47819037,0.47819037 0 0 0 -0.0195,-0.004 l -0.004,-0.002 a 0.47819037,0.47819037 0 0 0 -0.002,0 0.47819037,0.47819037 0 0 0 -0.0195,-0.002 0.47819037,0.47819037 0 0 0 -0.006,-0.006 0.47819037,0.47819037 0 0 0 -0.002,0 0.47819037,0.47819037 0 0 0 -0.0215,-0.0137 c 0.0346,0.007 0.0425,-0.005 0.0469,-0.01 z m -0.13281,0.01 0.0742,0 0.004,0.008 a 0.47819037,0.47819037 0 0 0 -0.0781,-0.008 z m 0.0527,0.0137 0.0273,0 0,0.002 a 0.47819037,0.47819037 0 0 0 -0.0273,-0.002 z m 0.0195,0.16211 0.041,0.0195 -0.0176,0 -0.0137,0 a 0.47819037,0.47819037 0 0 0 -0.12891,0.0176 l 0.11914,-0.0371 z m -21.839844,0.0156 -0.34375,0.0312 0.40625,0.65625 0.4375,0 -0.375,0.0937 0.28125,-0.0312 0.0625,0.40625 0.71875,0.75 0.28125,-0.65625 -0.03125,0 -1.4375,-1.25 z m 21.769534,0.0449 0.0644,0 a 0.47819037,0.47819037 0 0 0 -0.0566,0.0234 l -0.0273,0.0137 a 0.47819037,0.47819037 0 0 0 -0.0781,0.0488 l 0.0977,-0.0859 z m 0.50977,0.125 c 0.0144,0.006 0.0113,0.007 0.0176,0.008 a 0.47819037,0.47819037 0 0 0 -0.0176,-0.006 0.47819037,0.47819037 0 0 0 0,-0.002 z m 0.0117,0.041 0.0293,0.0586 a 0.47819037,0.47819037 0 0 0 -0.0293,-0.0508 0.47819037,0.47819037 0 0 0 0,-0.008 z m -0.29883,0.004 0.01,0.0703 -0.0976,0.0957 a 0.47819037,0.47819037 0 0 0 0.0879,-0.16602 z m -22.335944,0.004 -0.21875,0.375 0.59375,0.28125 -0.375,-0.65625 z m 3.09375,0.28125 -0.65625,0.15625 -0.0625,0.28125 0,0.0312 0,0.40625 0.71875,-0.875 z m 18.875004,0.0898 0.0879,0 a 0.47819037,0.47819037 0 0 0 -0.18164,0.13868 l 0.0937,-0.13868 z m -22.468754,0.12891 1.375,1.34375 0.28125,-0.15625 -0.40625,-0.625 -1.25,-0.5625 z m 23.429694,0.13477 0,0.0996 a 0.47819037,0.47819037 0 0 0 -0.0156,-0.006 0.47819037,0.47819037 0 0 0 0.0156,-0.0937 z m 0,0.13086 0,0.0352 0.0293,0.006 0,0.002 0.0742,0.22461 a 0.47819037,0.47819037 0 0 0 -0.13281,-0.20507 l -0.0254,0.0254 a 0.47819037,0.47819037 0 0 0 -0.002,-0.002 0.47819037,0.47819037 0 0 0 0.0215,-0.0273 0.47819037,0.47819037 0 0 0 -0.0117,-0.01 0.47819037,0.47819037 0 0 0 0.01,-0.0195 l 0.0195,0.002 a 0.47819037,0.47819037 0 0 0 0.0176,-0.0312 z m 0.0684,0.0234 0.0137,0 a 0.47819037,0.47819037 0 0 0 -0.0449,0.0176 l 0.0312,-0.0176 z m -18.404304,0.11719 -0.03125,0.21875 -0.251953,-0.10547 0,0.006 -0.0098,-0.01 -0.113281,-0.0469 0.07617,-0.0117 0.05859,-0.0332 -0.002,0.0254 0.273438,-0.043 z m 17.470704,0.0508 a 0.47819037,0.47819037 0 0 0 0.0645,0.0508 l -0.01,0 -0.0547,-0.0508 z m -0.11328,0.004 a 0.47819037,0.47819037 0 0 0 0.0977,0.0469 l -0.0234,0 -0.0742,-0.0469 z m 0.88672,0.0742 0.006,0.006 0,0.0742 -0.12695,0.12696 a 0.47819037,0.47819037 0 0 0 0.12109,-0.20703 z m 0.33984,0.25586 0.16993,0 a 0.47819037,0.47819037 0 0 0 -0.25196,0.26171 l 0.082,-0.26171 z m 0.29297,0 0.0352,0 a 0.47819037,0.47819037 0 0 0 -0.10938,0.0664 l 0.0742,-0.0664 z m 0.51172,0.041 0.041,0 0.0176,0.0273 a 0.47819037,0.47819037 0 0 0 -0.0352,-0.0117 0.47819037,0.47819037 0 0 0 -0.004,0 0.47819037,0.47819037 0 0 0 -0.0195,-0.0156 z m 0.0977,0.0898 0.006,0.004 0.0234,0.0332 a 0.47819037,0.47819037 0 0 0 -0.0293,-0.0371 z m -21.517584,0.0156 -0.21875,0.96875 0.21875,0.125 0.4375,-0.375 -0.28125,-0.28125 0.21875,0.15625 0.125,0.15625 -0.59375,0.53125 0.28125,0.40625 0.4375,0.0625 0.03125,0 0.0625,-0.1875 0.3125,0.3125 0.125,-1.125 -0.1875,-0.34375 -0.96875,-0.40625 z m 1.03125,1.875 -0.0625,0.0312 -0.40625,0.21875 0.65625,0.28125 -0.0625,-0.59375 -0.125,0.0625 z m 21.007814,-1.86914 0.0918,0 0.043,0.0195 a 0.47819037,0.47819037 0 0 0 -0.13477,-0.0195 z m -0.85742,0.0469 a 0.47819037,0.47819037 0 0 0 -0.0391,0.0293 l 0.0117,-0.0117 0.0273,-0.0176 z m 0.1875,0.0234 0.0449,0.0449 0,0.1543 a 0.47819037,0.47819037 0 0 0 -0.0449,-0.19922 z m -0.39062,0.0254 c -0.0119,0.1084 -0.005,0.0558 -0.006,0.084 l 0.0176,-0.0117 a 0.47819037,0.47819037 0 0 0 -0.0156,0.0586 0.47819037,0.47819037 0 0 0 0.01,0.0801 l -0.0195,-0.0371 a 0.47819037,0.47819037 0 0 0 -0.006,0.0703 l 0,0.041 a 0.47819037,0.47819037 0 0 0 0.0117,0.10351 l -0.12109,-0.22656 0.084,-0.0527 -0.0215,-0.043 0.0664,-0.0664 z m -26.791024,0.0234 -0.5625,0.25 -1.03125,0.0625 0.125,0.3125 0.8125,0.0937 -0.5,0.1875 0.46875,0.5 0.125,-0.28125 0.21875,0.15625 -0.21875,0.1875 1.6875,1.6875 0.03125,-0.3125 0.15625,0.3125 0.25,-0.28125 -1.625,-1.40625 0.375,-0.21875 -0.65625,-0.21875 -0.0625,-0.5 0.375,-0.0312 0.03125,-0.5 z m 27.634774,0.11719 0.0352,0.0605 0,0.0391 0,0.002 0,0.0723 a 0.47819037,0.47819037 0 0 0 -0.006,-0.0684 0.47819037,0.47819037 0 0 0 -0.0293,-0.10547 z m 0.13476,0 0.0996,0 a 0.47819037,0.47819037 0 0 0 -0.19726,0.0996 l 0.0977,-0.0996 z m -0.20117,0.0293 a 0.47819037,0.47819037 0 0 0 -0.0371,0.0273 l 0.0215,-0.0195 0.0156,-0.008 z m -0.66797,0.2461 a 0.47819037,0.47819037 0 0 0 0.0215,0.0234 l -0.0176,-0.0156 -0.004,-0.008 z m 1.43359,0.082 0.0312,0.01 0.008,0.01 a 0.47819037,0.47819037 0 0 1 0.002,0 l 0,0.002 0.004,0.002 a 0.47819037,0.47819037 0 0 0 -0.0215,-0.002 0.47819037,0.47819037 0 0 0 -0.002,0 0.47819037,0.47819037 0 0 0 -0.006,0 0.47819037,0.47819037 0 0 0 -0.0215,-0.002 l 0.0215,0 a 0.47819037,0.47819037 0 0 0 -0.0215,-0.004 0.47819037,0.47819037 0 0 0 0.004,-0.0137 l 0.002,-0.002 z m -28.427734,0.11914 -0.09375,0.25 0.625,-0.0625 -0.53125,-0.1875 z m 27.000004,0 a 0.47819037,0.47819037 0 0 0 0.11328,0.0859 l -0.0918,-0.0449 -0.0215,-0.041 z m 1.57813,0.11914 0.004,0.004 0,0.0605 a 0.47819037,0.47819037 0 0 0 -0.004,-0.0644 z m -0.26172,0.006 -0.0195,0.11914 -0.23632,0.0742 a 0.47819037,0.47819037 0 0 0 0.25586,-0.19336 z m 0.30468,0.0391 c 0.038,0.0374 0.035,0.0308 0.0566,0.0566 l 0.004,0.004 0.0488,0.0488 -0.0488,0.20312 a 0.47819037,0.47819037 0 0 0 0.01,-0.16015 l -0.01,0.006 0,0.002 -0.26172,0.18359 a 0.47819037,0.47819037 0 0 0 0.20117,-0.34375 z m 0.35352,0.34375 c 0.005,10e-4 0.009,-0.009 0.0371,0.004 l 0,0.004 a 0.47819037,0.47819037 0 0 0 -0.0371,-0.008 z m 0.0371,0.0879 0,0.0332 -0.0605,0.084 a 0.47819037,0.47819037 0 0 0 0.0605,-0.11719 z m -23.449224,0.0293 -0.0625,0.28125 0.65625,0.71875 -0.03125,-0.46875 -0.5625,-0.53125 z m 23.664064,0.36719 0.0566,0.0488 0,0.0937 -0.008,-0.004 a 0.47819037,0.47819037 0 0 0 -0.0488,-0.13867 z m 0.0488,0.14062 0.008,0.008 0,0.0742 a 0.47819037,0.47819037 0 0 0 -0.008,-0.082 z m -0.0195,0.0371 0,0.11719 -0.0625,0.10937 a 0.47819037,0.47819037 0 0 0 0.0625,-0.22656 z m 0,0.20313 0,0.0391 -0.0879,0.0449 a 0.47819037,0.47819037 0 0 0 0.0234,-0.0215 l 0.0156,-0.0137 a 0.47819037,0.47819037 0 0 0 0.0488,-0.0488 z m -0.16016,0.11133 -0.0215,0.0176 -0.0566,0.0293 a 0.47819037,0.47819037 0 0 0 0.0391,-0.0117 l -0.01,0.008 -0.0586,0.0137 a 0.47819037,0.47819037 0 0 0 0.0293,-0.01 0.47819037,0.47819037 0 0 0 0.0781,-0.0469 z m 0.30274,0.0195 0,0.0723 -0.12305,0.11524 a 0.47819037,0.47819037 0 0 0 0.12305,-0.1875 z m 0.041,0.0352 0.0312,0.0371 a 0.47819037,0.47819037 0 0 0 -0.008,-0.0254 l 0.008,0.0195 0,0.006 a 0.47819037,0.47819037 0 0 1 0,0.002 l 0.0137,0.0156 0,0.0234 a 0.47819037,0.47819037 0 0 0 -0.01,-0.0176 0.47819037,0.47819037 0 0 0 -0.004,-0.0215 l 0,0.0117 a 0.47819037,0.47819037 0 0 0 -0.0312,-0.0508 z m 0.0742,0.10156 0,0.0645 a 0.47819037,0.47819037 0 0 0 -0.004,-0.0176 0.47819037,0.47819037 0 0 0 0.004,-0.0469 z m 0,0.16016 0,0.10547 -0.13476,0.0625 a 0.47819037,0.47819037 0 0 0 0.0234,-0.0273 0.47819037,0.47819037 0 0 0 0.11133,-0.14063 z m -0.59765,0.1211 0.11718,0.36914 -0.0312,0.0137 -0.002,0 -0.0762,0.0332 -0.082,0.0156 a 0.47819037,0.47819037 0 0 0 0.0742,-0.43164 z m -0.12696,0.1875 0.0391,0.11132 -0.0176,0.0293 a 0.47819037,0.47819037 0 0 0 -0.0215,-0.14062 z m -0.34375,0.0195 a 0.47819037,0.47819037 0 0 0 0.0293,0.0625 l -0.008,-0.008 -0.0215,-0.0547 z m 0.0488,0.12695 0.0254,0 a 0.47819037,0.47819037 0 0 0 0.0117,0.0137 0.47819037,0.47819037 0 0 0 -0.0352,-0.006 l -0.002,-0.008 z m 0.0605,0 c 0.006,0 0.0254,0.0182 0.0293,0.0273 l 0.0195,-0.0137 0.0703,0.0566 -0.0176,-0.006 a 0.47819037,0.47819037 0 0 0 -0.0703,-0.0332 l 0.006,0.0117 a 0.47819037,0.47819037 0 0 0 -0.0117,-0.0137 0.47819037,0.47819037 0 0 0 0,-0.002 0.47819037,0.47819037 0 0 0 -0.0254,-0.0273 z m -20.679694,0.11914 -0.28125,0.1875 0.0625,0.25 0.03125,-0.0312 0.1875,-0.40625 z m 20.853524,0.13867 -0.0254,0.0879 -0.0215,0.01 a 0.47819037,0.47819037 0 0 0 0.0137,-0.0234 0.47819037,0.47819037 0 0 0 -0.002,-0.0273 0.47819037,0.47819037 0 0 0 0.002,-0.002 l 0,0.0293 a 0.47819037,0.47819037 0 0 0 0.0293,-0.0684 0.47819037,0.47819037 0 0 0 0.004,-0.006 z m 0.35742,0.0703 0.0371,0.0137 0.0156,0.16015 a 0.47819037,0.47819037 0 0 0 -0.0527,-0.17383 z m -20.773444,0.16602 -0.5625,0.25 -0.09375,0.25 0.25,0.125 0.03125,0.0312 -0.03125,0.1875 0.21875,-0.0312 0.1875,-0.8125 z m 20.890634,0.37891 0.0937,0.0156 a 0.47819037,0.47819037 0 0 0 -0.20703,0.16602 l 0.11329,-0.18164 z m -20.984274,0.55809 -0.34375,0.28125 0.15625,0.375 0.3125,0.0937 0,-0.0625 -0.125,-0.6875 z m 21.458984,0.14453 0.0137,0.01 a 0.47819037,0.47819037 0 0 0 -0.0879,0.0391 l 0.0742,-0.0488 z m 0.15821,0.11133 0.0137,0.01 a 0.47819037,0.47819037 0 0 0 -0.0879,0.0371 l 0.0742,-0.0469 z m 0.27148,0.13476 c -0.0147,0.0128 -0.0247,0.061 0.006,0.0527 a 0.47819037,0.47819037 0 0 0 -0.008,-0.0508 0.47819037,0.47819037 0 0 0 0.002,-0.002 z m 0.17969,0.01 0.0254,0.0176 0.0293,0.10547 a 0.47819037,0.47819037 0 0 0 -0.0547,-0.12305 z m -0.20703,0.0293 0.0254,0.0176 -0.14258,0.0977 a 0.47819037,0.47819037 0 0 0 0.11719,-0.11523 z m 0.0332,0.0234 0.0566,0.0391 -0.0996,0.21093 a 0.47819037,0.47819037 0 0 0 0.043,-0.25 z m -19.082034,0.98438 -0.0625,0.5 -1.03125,-0.15625 0.84375,-0.0625 0.25,-0.28125 z m 19.851564,0.18164 a 0.47819037,0.47819037 0 0 0 0.0879,0.0371 l -0.0156,0.002 -0.0723,-0.0391 z m -17.851564,0.31641 a 0.47819037,0.47819037 0 0 0 -0.148438,0.0996 l -0.0078,-0.0332 0.15625,-0.0664 z m 19.283204,0.39453 0.0274,0.0195 a 0.47819037,0.47819037 0 0 0 -0.125,0.0215 l 0.0976,-0.041 z m -20.376954,0.10742 -0.78125,0.40625 0.71875,0.0312 0.03125,-0.0625 0.03125,-0.375 z m 20.751954,0.85742 0.0293,0.0371 a 0.47819037,0.47819037 0 0 0 -0.18164,-0.002 l 0.15234,-0.0352 z m 0.0937,0.12305 0.01,0.0137 -0.0742,0.0898 a 0.47819037,0.47819037 0 0 0 0.0644,-0.10351 z m -18.783204,0.082 -0.21875,0.375 0.28125,0.0312 0.25,0.40625 0.1875,-0.21875 -0.5,-0.59375 z m 0,0.46875 0.25,0.71875 -0.0625,-0.46875 -0.1875,-0.25 z m 0.625,0.0937 -0.03125,0.4375 0.1875,-0.15625 0,-0.0312 -0.15625,-0.25 z m -3.8125,0.9375 -0.40625,0.125 -0.03125,0.25 0.65625,0.40625 -0.21875,-0.78125 z m 21.708984,0.16602 a 0.47819037,0.47819037 0 0 0 0.25586,0.0762 l -0.0644,0.0469 -0.19141,-0.12304 z m 0.27735,0.041 0.002,0.0176 -0.002,0 a 0.47819037,0.47819037 0 0 0 0,-0.0176 z m -17.455034,0.0428 1.125,0.75 -0.28125,-0.25 -0.84375,-0.5 z m 16.972664,0.18164 c 0.0106,0.0222 0.0353,0.0551 0.0391,0.0352 l -0.006,0 a 0.47819037,0.47819037 0 0 0 -0.0332,-0.0352 z m -0.004,0.26563 -0.004,0.0195 -0.13867,-0.0176 a 0.47819037,0.47819037 0 0 0 0.14258,-0.002 z m -20.125004,0.61523 -0.21875,0.25 0.3125,0.125 -0.09375,-0.375 z m 19.201174,0.39648 0.19922,0.0254 a 0.47819037,0.47819037 0 0 0 -0.30078,0.28124 l 0.10156,-0.30664 z m 0.23242,0.45899 a 0.47819037,0.47819037 0 0 0 0.0664,0.0723 l -0.008,0.008 -0.0586,-0.0801 z m 0.19532,0.19922 -0.0352,0.0176 0,-0.002 a 0.47819037,0.47819037 0 0 0 0.0352,-0.0156 z m -0.1875,0.0488 a 0.47819037,0.47819037 0 0 0 0.0156,0 0.47819037,0.47819037 0 0 0 0.0547,0.01 l -0.0215,0.0117 -0.0488,-0.0215 z m 0.68359,0.0391 0,0.16797 -0.14258,0.0449 0.002,-0.002 a 0.47819037,0.47819037 0 0 0 0.082,-0.11133 0.47819037,0.47819037 0 0 0 0.004,-0.004 0.47819037,0.47819037 0 0 0 0.002,-0.004 0.47819037,0.47819037 0 0 0 0.0527,-0.0918 z m -0.18164,0.20898 0.006,0.0156 -0.11524,0.0352 a 0.47819037,0.47819037 0 0 0 0.10938,-0.0508 z m -13.162024,3.24218 0.125,0.21875 -0.4375,0.46875 0.53125,-0.125 -0.5625,0.15625 0.03125,-0.0312 0.3125,-0.6875 z m 0.3125,0.6875 0.0625,0.53125 0.0625,-0.21875 0.1875,0.375 -0.0625,0.0625 -0.46875,0.125 -0.15625,-0.0937 0.125,-0.21875 -0.28125,0.1875 0.53125,-0.75 z m 2.625,23.28125 0.281254,0.21875 -0.406254,-0.1875 0.125,-0.0312 z m 3.625004,9.53125 0.15625,0.28125 0.59375,-0.15625 -0.75,-0.125 z m -0.78125,0.15625 0.28125,0.25 0.28125,-0.15625 -0.5625,-0.0937 z m 3.625,2.375 0.0937,0.3125 0.28125,0.0625 -0.375,-0.375 z m 13.03125,7.75195 a 0.47819037,0.47819037 0 0 0 -0.1875,0.0449 l 0.25,0.54687 0.4375,0.1875 0.0625,0.625 1.2207,1.0957 a 0.47819037,0.47819037 0 0 0 0.0156,-0.62304 l -0.89844,-1.07813 a 0.47819037,0.47819037 0 0 0 -0.29492,-0.16601 0.47819037,0.47819037 0 0 0 -0.10938,-0.32032 l -0.11718,-0.14062 a 0.47819037,0.47819037 0 0 0 -0.37891,-0.17188 z m -12.5,0.9043 -0.1875,0.125 0.15625,0.53125 0.0312,-0.65625 z m 18.32227,40.34961 a 1.1604255,1.13079 0 0 0 -1.16016,1.13086 1.1604255,1.13079 0 0 0 1.16016,1.13086 1.1604255,1.13079 0 0 0 1.16015,-1.13086 1.1604255,1.13079 0 0 0 -1.16015,-1.13086 z"
       id="path4569" />
  </g>
</svg>
